<mxfile host="app.diagrams.net" agent="Mozilla/5.0 (Windows NT 10.0; Win64; x64) AppleWebKit/537.36 (KHTML, like Gecko) Chrome/127.0.0.0 Safari/537.36" version="24.7.6">
  <diagram name="Page-1" id="f8rWuL3SOxkapQcQ6S_b">
    <mxGraphModel dx="1434" dy="738" grid="1" gridSize="10" guides="1" tooltips="1" connect="1" arrows="1" fold="1" page="1" pageScale="1" pageWidth="850" pageHeight="1100" math="0" shadow="0">
      <root>
        <mxCell id="0" />
        <mxCell id="1" parent="0" />
        <mxCell id="2PVGqbzeeDRuflCeW3WQ-3" value="" style="rounded=0;whiteSpace=wrap;html=1;" vertex="1" parent="1">
          <mxGeometry x="330" y="160" width="180" height="390" as="geometry" />
        </mxCell>
        <mxCell id="2PVGqbzeeDRuflCeW3WQ-1" value="MMRS | DEV" style="image;aspect=fixed;html=1;points=[];align=center;fontSize=12;image=img/lib/azure2/analytics/Power_Platform.svg;" vertex="1" parent="1">
          <mxGeometry x="120" y="222" width="64.92" height="68" as="geometry" />
        </mxCell>
        <mxCell id="2PVGqbzeeDRuflCeW3WQ-2" value="MMRS Service Principal" style="text;html=1;align=center;verticalAlign=middle;resizable=0;points=[];autosize=1;strokeColor=none;fillColor=none;" vertex="1" parent="1">
          <mxGeometry x="345" y="290" width="150" height="30" as="geometry" />
        </mxCell>
        <mxCell id="2PVGqbzeeDRuflCeW3WQ-4" value="Development" style="image;aspect=fixed;html=1;points=[];align=center;fontSize=12;image=img/lib/azure2/storage/Storage_Accounts.svg;" vertex="1" parent="1">
          <mxGeometry x="630.24" y="227" width="65" height="52" as="geometry" />
        </mxCell>
        <mxCell id="2PVGqbzeeDRuflCeW3WQ-5" value="TEST" style="image;aspect=fixed;html=1;points=[];align=center;fontSize=12;image=img/lib/azure2/storage/Storage_Accounts.svg;" vertex="1" parent="1">
          <mxGeometry x="630.24" y="330" width="62.5" height="50" as="geometry" />
        </mxCell>
        <mxCell id="2PVGqbzeeDRuflCeW3WQ-6" value="UAT" style="image;aspect=fixed;html=1;points=[];align=center;fontSize=12;image=img/lib/azure2/storage/Storage_Accounts.svg;" vertex="1" parent="1">
          <mxGeometry x="630.24" y="440" width="65" height="52" as="geometry" />
        </mxCell>
        <mxCell id="2PVGqbzeeDRuflCeW3WQ-9" value="" style="shape=image;verticalLabelPosition=bottom;labelBackgroundColor=default;verticalAlign=top;aspect=fixed;imageAspect=0;image=data:image/png,iVBORw0KGgoAAAANSUhEUgAAAXMAAAC1CAYAAACtfB+PAAAAAXNSR0IArs4c6QAAAARnQU1BAACxjwv8YQUAAAAJcEhZcwAADsMAAA7DAcdvqGQAAC79SURBVHhe7Z0L3I/1/f/fq205RxmpkWFaifCbYzkkGTctZdGBmlCqHYg0KpXEcmi1/RxCDp2c0rQ5ZZuhWg6bFErSKpbu9BNDaKv9/9/n577e3z73dV/f023E5f18PK7H93sdPuf35/V5f97Xl/tr/y+BGIZhGMc1JwWfhmEYxnGMiblhGEYMMDE3DMOIASbmhmEYMcDE3DAMIwaYmBuGYcQAE3PDMIwYYGJuGIYRA0zMDcMwYoCJuWEYRgwwMTcMw4gBJuaGYRgxwMTcMAwjBpiYG4ZhxAATc8MwjBhgYm4YhhEDjpqYPzx2rAy6Y6AcOnQouPLf5e2335Y5s2fLgQMHgiu5cbjpj2c+//xzufbaa2XBggXBFcM4PMymjj6x8czff/89efbZubJnz57gSmr+/e9/y/Tp02T8+HHBldzSZ+K5efPkvHO/J08/9ZT4f8jp7++8I20vaSNr164Nrnz10Bc9evSQN954Q4YOHSrPPfdccMcwiofZ1FdDbMS8bdtLZc7cZ+XMM88MrqTmiy++kDc2bZJDB7/cJeSSPlsmT54kb775ZnB27MGk69atm1xxxRVy6aWXyoQJE+SpxAI0L7EYhdm/f7+8k1iMDCMdZlNfHTmLOUI4a+ZMaXPxxVKv7vkycMAA2bdvX5EwCt4nXijeqPLFF/+R3/3ud9KyxUUu/ZLFi53nmipP2LFjhztvUP8Cadqksfx52bKkhztu3P9K+x+0c2XjDV+dMKLdu3e7g++THntMhj/wgMuzZ88fy7vvvuvqN/Seu932b8qUyc6Dpq5+eti5c6fcd9+9yXJ/OXJk0mvX8p955mmXL/k/9MtfFgrR1K5dW5o0bSpTH388Zehm44YN0vPHN7j0lPHEEzNcX2j9J0wY79resEF9ue/eobJ92zZ3zvP9+/eTT3btcvn85z//kUWLFrr+o74jR47IaofRp08f6d69u3Tt2tWdf/Ob35TZs2fLb3/7W1myZIm7pmzZskUmTpwYnBlfBWG7CNvBP/7xD+n38585G+AYPXpU0vaYIz//2U9dWmztqh91kbc2b3Y2xznzaN3f/uaeBexfy+h8+Q/lpZdeKrTLTIXZ1FdHzmK+bt06mTRpkoxICMZLL/9FWrRs4cQkG1auXCGff/5vmffcb6VXr14y/MHhsinhIafK8+OPP5bBv7hTvvjPF/Lb+c/Lk089Ld9IGIeyLSFuz857Tm5PGF0UCFz7Du1l0eIlcvppp8sjv3rYieWgO38h7dq1k+6JreDLf3lF6tevH6Qo4J///KfcNWSw7N+3X36/YKErd+PGDfLII7+Sf/3rX8FTib742zp54IHh8tCoUS5Es3btmuCOSIkSJeXGnjdKfv6HsnjxosiJcOizQ3LHoDvllVWrpV+//vKbX/860R8bg7siLycm0M19+8qDI0bIwoUL5ac//Ylcfc3V8vjUabLh9dflhaUvuOf+sHSpjB83TsaMGSNL//BHyf/wQ7eQZeLRRx+VK6+8Mjgr4Bvf+IZMnz5dLrroouCKcayhdqF2gG3Avz77LGEf18iLL70sv3rkUfcO6KUXX3T3YPXq1VKzRk154smn5OSTv54Q3evk61//utuRnnPOOTJjxnQn/mr/lc+o7Objrbf9JGHnw5z4ZsJs6qsjZzH/LOHZ/uvf/5K9e/dJ6dKl5fLLO8upp54a3E0PnirPf+tb35IOHTrImVWqyJa33kqZ56sJkcew7rzzTqlevbp897vfLWQQeXl5UqZMmeCsKNclPITvf7+RfPvb35YfXfUjt3B8lJ/v0uAxlDilhFSoUMEZm887W7e6F6K9evdyaSn3+utvkL/+9a/OY1HIk/tNmzaTmjVrFboHlSpXlj433eQWqq2JPMNQt/POO8+1uXHjxq7Nn3325WJxeefOrmzNv3Xr1vI///N9Of/88+WCC+rLhzs+TDz/mSxfvlzatm0rDRo2dH3bqlVref3114JcUuOPm7/YMMHT9avx1aJ2UbduXWmYGPP8j/Ld+NWoWdPZCmN3wQUXOJshlKFceOFFCUeppds1Ym/k0b59B6lWrZpc1KKFfPTRTmdP2P+27duly5VdpFy5ctKoUSOpUL6CvPXW5iCn1JhNfXXkLObNmjeXmxICRaji0oSAaKgkG0qVLJnwCE5237920kly0kkF31PluTlhPBjkqaeWd8+FKVWqdPAtmpOD/AFPJFvee+89qVSpklSuVDm4IlLhtNPk0MGDzvtRwnlu37Y9+PYlF13Uwokw4ZZPP/00uFrA9sSEITzTNbEoXHvtNS6k5OPXH6pVO1u+9rWvuePkkwuGDk+K8BELRp3zznVho7vvviuxA/rC3TfiR9guPk44EYjwrl27ZOKECdL9umvl8h9eVmRBx2awHQVHpFSpUu67nyf2T0ivU6eOzp4ubN7M5fX5vz8PnjCORXIWc8QYL3X5ipXy454/TmznfiXvv/++u0dMXIV99yefuE8f/z7hCo6vf+PrKfP89lnfdkK1d+9elyZXCM8oBw58KicnvIOTgsUkHewC8LI/2vlRcKWgPeXKnSqlc/QuaFvPnj3lnXe2yu9+93xwtSAmOeD2/lLlzCoyecrj8vQzzxTr5WvJxAJZrVpV+fnP+8mmN96UN97c7I5ZiS22ceLAoj7s/vtk957d8uivfyPz5z8v9epdENzNjaoJT5058MILS5P2xHFlly7BE8axSM5i/qc//dG9KEGUETeFwX/55ZdkzZrVLkQxc9bM4M6XcP/FlStdLJwXL8TPG9RvkDLP+g0ayKFDB2XixAnu5c7GjRvdi5hseX7+fFcXjskJz7VZs2ZOMBHYkiVLyd/f/bsLu4Rj/jVr1XJb0McTIku5pKe+bS9tKxUrVgyeyp4zzqgit/3kJ+5FkHrfLjaZWKS++Y1vyheffy6rXllVJEyTDSVKlHBb67lz57hwCy/J6KdVq14Jnig+M2fOdL9GAN+j27x5s3vnYRw78LtuPHPsiZEiJPjee+8W3MyR73znOwk7/5ZMnTbV2T/zlfdPhDwPF7OpI0fOYn7KKSXcNv5/GjaQ6YnBHjRokJx99tkJobtULr20nfw0IVqjRz0kP7zsh0GKL2nSpIls2LBB2iVEkZc49913v/MCUuVZo0YNGT1mrNv2kebuu4YUiW+nA5H71cNjpcuVVzhB/dlPf+Zi5eSR17GjvLHpjUSd28r6V18NUhRA3O/+YQ+475cltpo9ul8nrVq3lhtv7OUWguLQrFnzQp5N1apV5brrrnMvVQmxnJTYAhPaKQ6dLrtMrr/hBrl36D1uS3z/ffe6xSoXeCFcpUqV4KwAfmLG4jl69Gh3zuTjvQP15vfDxrFD2bJlpXv3Hu5laOfOl7s4OrHw4oDDMvTee+Uf27dLXof2bg5sTnjmp5xySvBEdphNHV2+lvCGswt4H0fgnd7St6/7eZRtDQ8PPD5+asako1/zEzsZdhj8+sEwioPZ1JEhZ8/cOLHgVwhPPPGE22Kzq3r66adt0hmHhdnUkcE8c8MwjBgQSzE3DMM40bAwi2EYRgwwMTcMw4gBJuaGYRgxwMTcMAwjBpiYG4ZhxAATc8MwjBhgYm4YhhEDTMwNwzBigIm5YRhGDCjyL0A/+b/c/xtWwzAM46vF/jm/YRhGDLAwi2EYRgwwMTcMw4gBJuaGYRgxwMTcMAwjBpiYG4ZhxAATc8MwjBhgYm4YhhEDTMwNwzBigIm5YRhGDDAxNwzDiAEm5oZhGDHgsMT8uXnz5Opu3WT37t3BlcI8PHasnHfu95LH2rVrgzsF/P2dd6TtJW2KXI+CMijLz4+05OGjeeoz1AFIP+iOgUXqyvPDht0vhw4dSp5HpU9FqufJj/I4NG8fbQ99mIlw28N9Hu7ncJ3pX66n6udM46j45UTVm/vZ5KP18Y9wP6WqM3lHjaPx1cLYZ2PLxpGj2GLOZFq16hWpVq2qbN26NbhaAPeY1PDGm5vdse7V9fLW5s2FJuz8+fMlL6+jvLhyZXAlPZT18l9eSeY5adJkuemmPkkjQlgHDxnsruszderUiRTTKHJNn+n5MmXLyvvbtsmGDRvcuc+fly2T119/LThLDWJ2YfNmMmDgwGQZI0aMkDWrV7tyEDbQexwQFse69erJ4sWLirSFsZozZ05wlhrtY/JnDEijQqsLWqVKlaR8+fLuWiZ69+5TqM5NmzaTTh3zXF4KdX58yhQTbsPIgmKLOQJ+xhlV5Kqu3YqI8bSpU6Vr165y+4ABwRWREiVKSPcePdwnMEHz8z+Uzldc4T6LM2Fr1KzphHTp0qXJ9IjpmWed5b7DD9q3T5aZDbmmz/T8ZZ0uK9I/1JWFsF+//sGVaHgOMVuwYKE0atQouFrQbspZtHChGwO/n+HW225zn/4iQj1hxwcfuE+FRaVNmzZuoUwFC8DGTRulc+fO7rxChQpufLVd1OePf1omzZs3d+fF4couXeTWW29zC7zSpHETadeunbMno8Ae+t58szz15JPJHQ0Lqu5iwjsZvOVJjz2W3NVxTh7+ucJizQ4VJ0B3V1zTfPVZPz0L+OY333RppkyZLHfffVcyLZBG0/vX+fTbQTl+vnpN8e/x+cKSJYXqrs5EuJwTjWKLORO5RcuWUqtWLdmyZUvSo6IjOa9fv747T4UuBjVq1HCfiEpxQEjLlSvr8uP7/n37ZPy4ccHd3Mg1fTbP12/QQPZ/ur+Qx0lbaXPFihWDK9HQJtrmLxYKAsuCwBiEYTHB0/UXkTKly0iHDnmFxJKxYiFs0LBhcCWagwcPunZWOO204IpI1WrV3CIc9vQPB2wG2/EnY17Hjq4cX6ROZPbs2SM7d+50u5kZTzwpN1zfw42zno8dM6ZQ/y1L2NqEiRPdbmrNmjVyS9++hc79fl25YoX07XuLzJo929ke9sWOmrxxGBjrkSMeTO4SWcC/d+65Mmr0GLfTGj78QZeWxR4xZtw0PWlIq/bit4OFnPI0X5yX2XNmuzkTLpO6T5s2zeUBtHXUqFHJ3XG4nBOJYok5ncykQ8gZuNq1a8v69euDu+IEyJ/4YejouYnBUiHiE8PRAfA9gnC4IAzChTDqdwwLSOuv3rBt23YXstC8OTp16uiECtKlx2h8z4FJkKk8KFWypJxf5/ykiNIW38tVfO+CTxV/2kY5URDGOT1FPyO2YcILLxOIseO6EtXO3Z98Inv3FvSRQrmUnwnfO4vqHx9sBtvxoe0IjIVbCiCMpbbDuLVs2arQOfcZL4UdFHOUo3HjxkXOt2/bFjyZWDjzOrpdFjC+jDkLucJYYI9+migYJ5wExk1tt27dus5edGfotwPYeeruE+dFd5K6uyQ9UG8EW8Exwoa13mrLfr1PFIol5gg3HUjHAoOCQKnoYgS+QYVhQHlGOz480KzUrLIciGUqMQPKxPP1RQ0vgrTgLwbhmDsHXkBYlKLS01a8Dk3nhz1Sladc3KZNMpSEceIlq/EpGqogHz71fjrvl0VoV4p+ZsJVr149OCuANhC2YPzIkxh6eFGJameUyFKuLoLp0L7h4Hs6sBnGomRiAfShLyzccnShz3v17u2cHz90QQgPx4vF2Q+FhAk7dMxh7D6VvWKPzB3ybdigvtslKOkcGiDEow4D9V23bl1a/YkrOYs5nc5g+h2Idztr5kwnVIhB2FMPw72VK1ckvWQGj/R+CCBbKBNRiQpFYHj+IpEruaZP9Tx9Qthj4YIFkQKaChY7Fr2o8jHucChF0TGK8s5ZWLi3YvnyyEUlFeEFmsUi0yTLFcafXUxUnhpu4cWvcXRgIWcR9kMXjA0OFuET7ChV+CtsL6QNO10K94bec7d7/0Z55N2yVavgblGHJrwzILyjDgOH7wydSOQs5rrt0ViYHnSoCgtiNX78uEIrN4PBC4/8/Hy3BcMj9tNzHo6XZgJDGvyLO5PbOc5940IEN23aFJxlJtf0uTxPPHj69GkpF54o1JPmFzsaGgG+8xIIYSbu6YcvdGIgtP7uQSFP7vXv3y8y3h6F1kMXW91GZ7soZQNtYNIi2lEwvozz6NGjXLjMOHrkGnJRh27ixAlJEU7ndJEv+avQ+/MIh4bxVt3B9vxfXzGvNL5+opOzmCPYeIRh74lOXb1mtetUVsW5z85znZ703jvmuV87bN++PfKlHudcT/ciNBzzJu6+YOGi5CpMuIZreh8RHDliZNardK7pc3mea8Qk8T7CfZcOQk4jf/mQ2/1oOUySVq1bu0kzfcYMJ4J6j10O45MupIEIX33NNck4ZDaoZ0wZjAFb8Gz7NQp/Z8dBSChTSI3y+MWLceTBSdGxwa4HDRrkwl8aCuEA7BPUgdOQDPaH2GOPPMs8GfbA8MjxxY6xJ7VxXmieHewqucdPcXHauMcL3J49e7p7gE0MHHhHofmR6d1MXLE/6GwYxnGF7vh1ITEKKNYLUMMwjK8Cdv6EVTL99PlExDxzwzCOWQjZEFrx/7U0v6ePeh90omNibhiGEQMszGIYhhEDTMwNwzBigIm5YRhGDDAxNwzDiAEm5oZhGDHAxNwwDCMGFPlp4v59e4NvhmEYxvGC/c7cMAwjBliYxTAMIwaYmBuGYcQAE3PDMIwYYGJuGIYRA0zMDcMwYoCJuWEYRgwwMTcMw4gBJuaGYRgxwMTcMAwjBpiYG4ZhxAATc8M4jlm7dq08PHZscBYN9/Uv2hvx5bDEHAO5uls390dXo8CIzjv3e8kDw/PhL223vaRNketRUAZl+fmRljx8NE99Rg2d9IPuGFikrjw/bNj9cujQoeR5VPpUpHqe/CiPQ/P20fZkM8nCbQ/3ebifw3Wmf7meqp8zjaPilxNVb+5nk4/Wxz/C/ZSqzuQdNY6GURyYv31vvrmQPflz2teYKLvl0LnAp16Lmgeccz08P/9bFFvMqdiqVa9ItWpVZevWrcHVArTS8Mabm92x7tX18tbmzYUm7Pz58yUvr6O8uHJlcCU9lPXyX15J5jlp0mS56aY+yc6k0wcPGeyu6zN16tSJFNMock2f6fkyZcvK+9u2yYYNG9y5z5+XLSv0F8dTgQFd2LyZDBg4MFnGiBEjZM3q1a4chA30HgeExbFuvXqyePGiIm1hrObMmROcpUb7mPwZA9Ko0KrxV6pUScqXL++uZaJ37z6F6ty0aTPp1DEvOXGAOj8+ZUqRSWEYRwpsbciQITLylw85u+Rz4sQJbt40atSokM0uWLBQWrZsJRe3aePuly5dOnmvcePGMm3q1CDXgvlzS9++0ibx7JGi2GKOgJ9xRhW5qmu3ImJMI7p27Sq3DxgQXBEpUaKEdO/Rw30CnZaf/6F0vuIK91mcCVujZk0npEuXLk2mR0zPPOss9x1+0L59ssxsyDV9pucv63RZkf6hriyE/fr1D65Ew3OIGUaDISm0m3IWLVzoxsDvZ7j1ttvcp7+IUE/Y8cEH7lNhUcHAWChTgaFu3LRROnfu7M4rVKjgxlfbRX3++Kdl0rx5c3deHK7s0kVuvfU2t8ArTRo3kXbt2hWaFCc62ASOknp/n+zaFdwpINXu6cCBA26B57rvbfr56XWu4a0+9eSTybxYuH3PVBdyoMxJjz2WzIdzP1/fE6VO7ISpC/d5jmuarz4b9ZyfJ58vLFmSfJ56+ztsPjnXdvplaH60oVOnjrJy5QrnMPEMuoYQ63yrW7euc8rC8waw1V69e7v5wJxnTiotWrYMvhWAfc+aPVsqVqwYXPnvU2wxZyJT4Vq1asmWLVsKGQfn9evXd+ep0MWgRo0a7hNRKQ4IablyZV1+fN+/b5+MHzcuuJsbuabP5vn6DRrI/k/3J/sHaCttzjSwtIm2+YuFgrGyIISNBjAsPF1/ESlTuox06JBXSCwZKxbCBg0bBleiOXjwoGtnhdNOC66IVK1WzS3COnn+G2Az2A71UvI6dnTl+OJxokJfjxzxYHKXNmHiRJk2bVpwt/DuiQMBUaZPnyZ9+97irrMbxg7C+bEgszDDnj17ZOfOne76jCeelBuu7+HsSc/HjhlTaJyWJWya+rBrW7NmjfNC/XN//FauWOHqgrhh49gxO3fy9h0T/7mSJUumbXs6aCeLmZahXjOCrd419fT7S2EuMXd2ffJJcKUA5jPzGrGPQvXxaFIsMachTDqEnFWpdu3asn79+uCuOAHyJ34YOnfunNnJxvLJgKow+KtoOFwQhs5GGPX7qNFj3HfS+h4BbNu23a3AmjcHKzNCBenSY7jqFXBgnJnKg1IJIzy/zvlJEaUtvper0KdRcTraRjlR4DGcnqKfEdsw4YWXicTYcV2JaufuhCHv3VvQRwrlUn4m6BPNK6p/fLAZbMeHtjOhLdzy5U5LBYS5h7gp6RZYdj0q1Mw3ngPsa/u2be67D+EytVHsA8Hzz7mPXSjs1KgPB2IZPvfLYDHRumBH2BYOQxj/uUxtTwc25EcF0oks9Vm9ZnVyjvC5aNFC992H+cy89ucmc0VtnTL83fTRoFhijnAjAnQoMMgIlBoRg+MPdBi2LDyjIhLeyrBCsoJyIJapxAwokxXSFzVWd9KCvxiEY+4crMxhUYpKT1vxEDSdP1CpylOIqWkoCaNkpVcjVTjHMyIf30NK5/2yCIU9BoXJU7169eCsANpA2ILxI09i6OFFJaqdUSJLuboIpkP7hsP3uqLAZhgLvDAf+sLCLQWkW9wZK3ZkDRvUT+sE+QsxITkcKQRIPfujCWNLqAInS8MfqUjX9kz4QssuIxXUZ+DAO5yTx7PEy1u2ahXcLYA6Mi+Z1z70v9o6nnkmR/S/Tc5iTuUY/ClTJic7h4bPmjnTCRViEPbUw3BP41Skx/hI74cAsoUyEZWoUASG6i8SuZJr+lTP0ydMsoULFkQKaCpY7Fj0osrHqMOhFEXHKMo7xwC5t2L58shFJRXhBZrF4nAmVxRR3o6i4RZe/J7IhBf3sFetjhC2kU24kL7GYSIEgV344ZCjhYognjahlFQCmKntqaBNRAI0zEKYKB2+KA8ecpfTF3/3qiFi5nUqet54o/uM2nEcKXIWc93uaMfoMXz4g0lhQazGjx9XaKVnEHihkp+f7+K0eMR+es7D8dJMMEiDf3Gn24ZjlJz7xogIbtq0KTjLTK7pc3meeDBxy1QLTxTqSfOLHd32Ad95+YMwE4/0wxf089B77nbGhlGGIU/u9e/fL+1200froYstY8QYZrsoZQNtYLIi2lEwvozz6NGjXLjsRARBoe06BxmHVL9EyvWdBv2LXWQrkEeCdCGXTG1n97jjgx1Jx4cfBxBzh7DjEeUApYLdIAujL9xR8XDm5MaNG4OzgvdiEN5lHklyFnMaQuO0YxTESmNNeHtzn53nOjvpvXfMc7922L59e+RLPc65nu5FaDjmzWq7YOGipHdJuIZreh8RHDliZNbeZ67pc3mea8QA+fVPuO/SgafFz6N028fB1q9V69bOwKbPmOEmrd5jl8P4pAtpIMJXX3NNMv6YDeoZUwZjwNY4236Nwt/ZcRASyhRSozxivycqjDc/S8WBoc94ydizZ8/gbuF3TbygxKtM158IPaEATQNRLwGPJDhDWj7zZ9CgQYWEU8nUdu7jcOg84YWnhkd82+XwwaaIJGDT9F+4T7BLv09YRHA6/bAusJgMf+CBZDp2OcMeGJ7TXD9c7A86G4ZxXKI7/6O9AB2rFOsFqGEYxlcJEYDZiV1xpp9An0iYZ24YxjEP4Q1CK/6/muZFZtR7oRMVE3PDMIwYYGEWwzCMGGBibhiGEQNMzA3DMGKAiblhGEYMMDE3DMOIASbmhmEYMaDITxP379sbfDMMwzCOF+x35oZhGDHAwiyGYRgxwMTcMAwjBpiYG4ZhxAATc8MwjBhgYm4YhhEDTMwNwzBigIm5YRhGDDAxNwzDiAEm5oZhGDHAxNwwDCMGmJgbhmHEgMMS8+fmzZOru3Vzf2w1iofHjpXzzv1e8li7dm1wpwD+wnbbS9oUuR4FZVCWnx9pycNH89RnqAOQftAdA4vUleeHDbtfDh06lDyPSp+KVM+TH+VxaN4+2h76MBPhtof7PNzP4TrTv1xP1c+ZxlHxy4mqN/ezyUfr4x/hfkpVZ/KOGkfj2IZ50vfmm7OyjVRzxkhPscWcQVm16hWpVq2qbN26NbhaAPeY1PDGm5vdse7V9fLW5s2FBmn+/PmSl9dRXly5MriSHsp6+S+vJPOcNGmy3HRTn6SwYDCDhwx21/WZOnXqZG0YuabP9HyZsmXl/W3bZMOGDe7c58/LlhX6S+OpwLgvbN5MBgwcmCxjxIgRsmb1alcOhg96jwPCE6JuvXqyePGiIm1hrObMmROcpUb7mPwZA9Ko0OqCVqlSJSlfvry7lonevfsUqnPTps2kU8c8l5dCnR+fMsWE2zCyoNhijoCfcUYVuaprtyJiPG3qVOnatavcPmBAcEWkRIkS0r1HD/cJTND8/A+l8xVXuM/iTNgaNWs6IV26dGkyPWJ65llnue/wg/btk2VmQ67pMz1/WafLivQPdWUh7Nevf3AlGp5DzBYsWCiNGjUKrha0m3IWLVzoxsDvZ7j1ttvcp7+IUE/Y8cEH7lNhUWnTpo1bKFPBArBx00bp3LmzO69QoYIbX20X9fnjn5ZJ8+bN3XlxuLJLF7n11tvcAq80adxE2rVr5+zJKLAHvNunnnwyuaNhQeXwzxV2SpMeeyy5q+OcPPxzhcWaHSpOgO6uuKb56rNc04UdWHz9nS3PaRp1KKhTp04dZeXKFc4x0fT+s5rvDdf3SNj7AmnYoH4RZ8F/ViEPbaOWF1UHhbR6j36k7r4DEa7T8USxxZyJ3KJlS6lVq5Zs2bIl2SEYAef169d356nQxaBGjRruE1EpDghpuXJlXX58379vn4wfNy64mxu5ps/m+foNGsj+T/cXMhjaSpsrVqwYXImGNtE2f7FQMFAWBMYgDIsJnq6/iJQpXUY6dMgrJJaMFQthg4YNgyvRHDx40LWzwmmnBVdEqlar5hZhf6IcLtgMtkO9lLyOHV05vkidyOzZs0d27tzpdjMznnjSiR/jrOdjx4wp1H/LErY2YeJEt5tas2aN3NK3b6Fzv19XrlghffveIrNmz3a2h32xoybvsMMQBeVWrlzZPU86wOHAEcEhadmylSuXhVuFkmc5uMZBGzp16uTSk448hwwZIiN/+VAyX+rl11vbOGr0GGerUXUA0vhtKlWqlGuz4tcpqpxjnWKJOcLEpEPI8dJq164t69cXdBwgQP7ED4MAzJ0zOylEfNJxKgz+6hleWcMgXAijfmdAgbSssj7btm13noHmzYHHgFBBuvQYlXo0HAxypvKgVMmScn6d85MiSlt8L1fxvQ8+VfxpG+VEQRjn9BT9jNiGCS+8TFjGjutKVDt3f/KJ7N1b0EcK5VJ+JnxPJ6p/fLAZbMeHtiMwFm4pgDCW2g7jhkD659xnvBR2UMxRjsaNGxc5375tW/BkYuHM6+h2WcD4MuaIY7aQ53Xdu7vvjBsORSqydQZwfKin7kzJNxwN0DZBqjqo5pBW5xOOQstWrdx3bAvHRvtS0/r9c6xTLDFHuBEB7UA6AIHSgcEIfIMKw1afZ1RE6tat64RBQwCs0KyOHIildn4UlInn64saXgRpwV8MwjF3DjyGsChFpaeteCyazg97pCpPubhNm2QoidAHXrJOGkVDFeTDp95PZ/AsQrtS9DNGWL169eCsANpA2ILxI09i6OFFJaqdUSJLuboIpkP7hiOTd4fNMBYlEwugD31h4ZajC33eq3dv5/xo2CUbfEfs7rvvCq4WBbtCLAmnZHLYwnbMXGfOp0qTqg7pnB9g14Nz56d97733grvHPjmLOR2IFz1lyuRko+mAWTNnOqFCDMKeehjuafyM9Awo6f0QQLZQJqISFYogduwvErmSa/pUz9MnGO7CBQsiBTQVLHYselHlq+fgeyiKjlGUd87Cwr0Vy5dHLiqpCC/QLBbpdg3FgfFnFxOVp4ZbePFrHB0QXBZhXr6PHPFgWsEFRBTx08V7+PAHgzvRqNOGHacLVYYFFUcC242yk3R1CDs/7Dp2fLAjOIt29jI5IMcSOYu5vlTTuJMedJoKC2I1fvw417EKhsALh/z8fLedwSP203MejpdmghDA4F/c6bbhDCznfowLEdy0aVNwlplc0+fyPPHg6dOnpVx4olBPml/s+DF3vr+wZIkTZuKefviCfh56z91OaP3dg0Ke3Ovfv19kvD0KrYcutuEt6X8D2oBYI9pRML6M8+jRo1y4zDh6+CEXHAQNiXJMnDghuUNDRNWL5h7PZUO6kAvzZtGihcl5xjN+iDZMqjpgPywapNVyCOFs3fq2+67z4nje/eUs5gg2nRJeFen01WtWO6HB25v77Dz387Wk994xz/3aYfv27ZEv9TjneroXoeGYNwOzYOGipHdJuIZreh8RHDliZNbeZ67pc3mea8Qk/ZhdNuC98PLH3/4xgVq1bu0McPqMGW4i6D12OYxPOo8CEb76mmtc/bNFPWPKYAzYgmfbr1H4OzsOJmCmkBrl8YsX48iDeOrYYNeDBg1y9qY2g50xpy+5pK3bjULPG29Mznnu6XVg7NixYzs4eX4ohJe2g4fc5cbez586kI5frOG08SzXmUNRjgqkqwNzCcEmD+4fOHAgGTMHdtb+XPLfXR0P2B90NgzjhIQdJuEjFhIWquOdYr0ANQzDON4hpIKnHgchBxNzwzBOCPzQDgchFf0HdnHAwiyGYRgxwDxzwzCMGGBibhiGEQNMzA3DMGKAiblhGEYMMDE3DMOIASbmhmEYMaDITxP379sbfDMMwzCOF4qI+bb3/h58MwzDMI4XLMxiGIYRA0zMDcMwYoCJuWEYRgwwMTcMw4gBJuaGYRgxwMTcMAwjBpiYG4ZhxAATc8MwjBhgYm4YhhEDTMwNwzBigIm5YRhGDDgsMV/6wlLp1+92+efe6P+ca+rUadK+Q17yeH3DhuBOAdu3bZPrb/hxketRUAZl+fmRljx8NE99hjoA6R8aNapIXXn+f8eNk88++yx5HpU+FameJz/K49C8fbQ99GEmwm0P93m4n8N1pn+5nqqfM42j4pcTVW/uZ5OP1sc/wv2Uqs7kHTWOxtEBe79n6L2H1f+Maap54YM9ZTM/jAKKLeYM5quvrZcqZ54h77//fnC1AO4xqWHJ4kXueH7+b+Xdv79baAD/8Mc/SetWreSva/8aXEkPZc2ePSuZ54MPDJO77hmaHHAMbczDv3LX9ZnvfrdWRqNRck2f6fnSpUvLjh0fyltbtrhzn9WvrJLNb20OzlKD4XfrdrXc2KtnsowBt/eT1197zZXDpAC9xwHhyXLOOefIypUri7SFsVq0eElwlhrtY/JnDEijQqsL2umnny5ly5V11zLR9aqrCtW5wQX1pc9NN7u8FOo8d+6zJtyGkQXFFnME/FsVvyUdOnQoIsbznp0neR3ay4039gyuiJxyyily+eU/dJ/ABP34/z6WSy9t6z6LM2GrVqvmhPTFl19OpkdMK1Wu7L5DixYtkmVmQ67pMz3f5uKLi/QPdWUh/PENNwRXouE5xGzyYxOlXt26wdWCdlPOiuUr3Bj4/QzXXXet+/QXEeoJOz/6yH0qLCpNmzZxC2UqWAC2bH1bLm17iTs/tVw5N77aLurzxIzp0rBBfXdeHNr9oJ10v/Zat8ArF9SrJy0uvNDZk1FgD3jFzz//u+SOhgWVwz9X8GxnzZqd3NVxTh7+ucJizQ4VJ0B3V1zTfHmWvPvc3FfWrl3rHAzfidLdaXhnRjrNg+c5Bg26U/785+VyeecrXJ5+ncjnna3vuHrMmTtXHn7kkUJ5+nXiWV38ue/3Dc/5+eo1H79uL774oitTywnXyXcyjlWKLeZM5O83+r6cffbZ8u577xXqVM7PPfd77jwVuhhUrVrVfSIqxQEhLVOmtMuP759++qk8/fQzwd3cyDV9Ns+fe965cuDggULGQFtp82kVKgRXoqFNtM1fLBQElgWBMQjDYoKn6y8ipUqWkpYtWxYSS8aKhfC8OucFV6I5lCiLdpYrXz64InLGmVXcIhz29A8HbAbb0QkFrVq3cuX4InUis2/vPtm1a5fbzYwa9ZATRsZZz6c+XiDYyqpVq+X+Yfe53dTrr2+Qe4feV+jc79c1a9bKtVdfLY888rCzPeyLHTV54zDgUOBYNGrUyKVnAaasSVMeT+5O2UFOnDjR2YWKJ9c5eJ6Del58cWuX9zm1a7vndeeJU1CzVk25c9Agt3u7vV8/Vx8cCOrKjlB355RJ2dpev28ohzZovtR74eLFyXkYrtvbb2+VD3fku2vU3a9TuJxjlWKJOR3CpEPI6eTvVK8ub775ZcgAAfInfhg6a3GiY1WI+MRwVBj81TccLgiDcCGM+h0jANL6ngcwWHgUmjcHngZCBenSM5D+Ko9hZSoPSiaeqV3ru0kRpS2+l6vQp+rd+J4AbaOcKAjjVDj11OCsMIhtmPDCi7EzdlxXotq5d88e2b+/oI8UyqX8TPjeT1T/+GAz2I4PbUdgLNxSAGEstR3GDWH1z7nPeCnsoJijHPXq1S1ynr/jw+BJcSFPdlnA+DLmLOTpwDHBhjSd2hLpslnwGV9s3K9HFKoZCCx1B8qkbOwY/L4BFh/d0eIQ6e4UO8KJ8Z/t8qMuyd2p7mhZaIC0lStXKtSvxyLFEnOEm07UTqVTECgdNIwgXcPZ6vOMDjydhjBoCIBVVVdMxDKVmAFl4vn6ooYXQVrwF4NwzJ2DFTssSlHpaSsegqbzwx6pylOaNGuaDCVhKHjJavyKhirIh0+9n24ysAjt/uc/g7PCMDm+fdZZwVkBtIGwBeNHnsTQfYOGqHZGiSzl6iKYDu0bDr6nA5thLEqExpu+sHDL0YU+v+qqHznnxw9zREE4RBdsnt+06Q03ltgOO0TCKemcMsKCOHOkD4dCfKKcF2w81UJAeZRLvtSBnYeSyeHUMJCmXbBgYcq5dqyQs5jTQXS8P4B4tzQWoUIMwp56GO5p3M3vLD8EkC2UiahEhSIwEn+RyJVc06d6nj7BqJcnDCRKQFPBYseiF1U+C1w4lKLoGEV55yws3FuzZk3kopKK8ALNBEq3aygOjD+7mKg8k+GW114LrhhHGsTYLcJe6CQKQiG6YHP4zog6ZthqqnAk443TRtgF20wVUotyXv7xwQeRdk5dH3n0UfdOj/LJu3HjRsHdovbMd64p4Rf0HL4DdyySs5gjnqCxND0YUBUWxOqpZ54ptMrSubyc+Pjjj90WB4/YT895OF6aCQZ9zJixbhuOQXDuGwIiSCwsW3JNn8vzxIPnPfdcyoUnCvWk+cWOhkaA77ywQZiJe/rhCzVihDbK+MiTew+OGBkZb49C66GLbdQ29XChDYg1oh0F48s4T57yeDK2aRwd0oVcsGs/Fp2Kww25cI8FwX8nQJka7g1DXamzevL+3FSH03ce+U7MHcgv/D7heCBnMUew6VQ614dBfe31110Hsyr/5je/di8rkt77TTe7Xzt8mJ8f+VKPc66nexEajnkTQ5s86bGkF0C4hmt6HxEceHv/rL3PXNPn8jzXiEniKYT7Lh14NgMHDnC7Hy3nmVmzEl5GY2eUDz000k0Svccuh/FJF9JAhDt16piMCWaDesaUwRiwBc+2X6Pwd3YcbJczhdQoj1+8GEcehEzHBru+qXcvZ2+MAUKIDeCscd6r142F7FOdC//dFyLct29fN75qd9jq39atS4ZCOACbB3UKNczDdWL+qgFjH37EzQ3qFYZr2KjWixeYZ3oePLtof94QT9eYOWn5+S+Oot5PFyY6VrA/6GwYxgkPTujzv/+99OndOydn61iiWC9ADcMw4gIeN7vdVO9rjhfMMzcM44SDUBChPoUXnpl+bXWsY2JuGIYRAyzMYhiGEQNMzA3DMGKAiblhGEYMMDE3DMOIASbmhmEYMcDE3DAMIwYU+WmiYRiGcfxhnrlhGEYMMDE3DMOIASbmhmEYMcDE3DAMIwaYmBuGYcQAE3PDMIwYYGJuGIYRA0zMDcMwYoCJuWEYRgwwMTcMw4gBJuaGYRgxwMTcMAzjuEfk/wNjkL+Vb0QVrgAAAABJRU5ErkJggg==;" vertex="1" parent="1">
          <mxGeometry x="548.75" y="540" width="266.46" height="130" as="geometry" />
        </mxCell>
        <mxCell id="2PVGqbzeeDRuflCeW3WQ-10" value="MMRS | TEST" style="image;aspect=fixed;html=1;points=[];align=center;fontSize=12;image=img/lib/azure2/analytics/Power_Platform.svg;" vertex="1" parent="1">
          <mxGeometry x="120" y="322" width="64.92" height="68" as="geometry" />
        </mxCell>
        <mxCell id="2PVGqbzeeDRuflCeW3WQ-11" value="MMRS | UAT" style="image;aspect=fixed;html=1;points=[];align=center;fontSize=12;image=img/lib/azure2/analytics/Power_Platform.svg;" vertex="1" parent="1">
          <mxGeometry x="120" y="432" width="64.92" height="68" as="geometry" />
        </mxCell>
        <mxCell id="2PVGqbzeeDRuflCeW3WQ-13" value="" style="shape=image;verticalLabelPosition=bottom;labelBackgroundColor=default;verticalAlign=top;aspect=fixed;imageAspect=0;image=data:image/png,iVBORw0KGgoAAAANSUhEUgAAAJ4AAABHCAYAAAD2tP6cAAAAAXNSR0IArs4c6QAAAARnQU1BAACxjwv8YQUAAAAJcEhZcwAADsMAAA7DAcdvqGQAADkQSURBVHhe7X0HnGVFmf15OfXr1/06x+nJeUhDzgMISFAQGQQJghETiIoIAoq6YlpQEV0xIOwqwoIgmFDJggwDC8wAk3Pn6fxy2nPqvtv9uqcHhhWE/+/fX883dUPdiqe+UFX3PseqwUJhZwJ4fk0fhuI5ZFJ5OBxuAIUi70oFOPm/iwcOOAsF+AoxHLa4CdURXuLl+/+6GilvBTJOn/2AIYcVWCkX8ubIUWS30wmXy4V8Po9sYhAHLpyGhiov/H5gS1cM2waYME/i8QQczBMFN59TOSxKJpP8v5gDy5VNZZFIpuAL+JhOCHvNcKGCxUnFEihk0/B4gsyVaU7RW0KOJzoKhcdfaMfqTT1I5X3sOh98vgBv7R54YIer0xxF4AXzgzjxgBbMbvEh7wFuvet/0JsvQ9KpdJgJk7FB53BYR3boLIbZTBZuAi+Xy6GQ6MMJB83CwplBA7wVq7px3983whOu5f0EXASpo8CMhPLJiJh2FBiHaWcLObiyA3jX4fOxZIYfrlyWwEvxWe8U8N5CckpQbNywg0LCD7cnDK83TDD44HR6yZ5J2eF0MyTwCBQrdCOTo6RkP/ISwVEgKywygWAfZ7MFw0ZikvMEiFggsNkCtpPlEUCBeCIDLyWUz19GDpPLOTgi8JewyxkaY3cQTreX0i4Il8eHdCaPjq4eXrPK4uTB7obUFP1riGJBmklSrpydFOQVgajwmpwmijKUHpm8whz8wQCIH8O+YAgOdrw63+aJ53mBroQFkFH2+qQtkUwTqASK2+tHTuoz50Qm6xjldI7X8i7DDhelNdnp9lshWc9qUITKI4zLwUC0JTM5c513TANM0VtDTppC7BC36bycpI+DyHETDFRneUqzybjAewUX2engOS00cjydBnEACjUk0immw3tMS5wrCW2279mczVMSEhgZhoZpA8rUZLF4Pc9nmDcvGIZCnhOwWQGSnOMYEus4r/Hk8lj3CbI0wVaQlNPAUKKsg4N1kJrfHU/Rm0tOqRypNYvVaQV2asEcj10fzwKVnjMhOW+kpsU6ttgCgNh6Ztc0Rln5CoB2WExTLME0moakI207C3hjccR2/lYZ7HT0jBVaeeqedU31m6K3joqqlkAzHoCYIpCyw+pEC1gTWWgwxwYoVmePIztOCY8+Y3PpvZJz+7lxZEQVRZ9xJmQHCjgkB+VrkQsODpkStkDGtMblxSQU8toUvbXEHlVXs7MKWUoTenxUa9ZUx+5pFCD0aPNFtskAVqF1Okq7nPMZm+00qGFNqGtmDDCeFVr5jePiYBnjUuAxLUaxJOhYmUTm6YmFmaJ/OTm99By9XnVtVt1kXy6Gk5MBjFBSJB3pWjajkM6Fz8sDplVkAVkd/lpkA0RxXTxw83GFlrziCUFl4CRwTfjLM49Szik01y1WwfS4kx6G00L46L3JeIreXCqReFRXhtmNJaB6NbKllcJSss70/0Qeo4kdbadjQuYv41NsSSjr+VKFaViiaxLm/wwn5jg+2hS9teSkQ0ovzph6xU62wj2lUimltMaT7uwhT5LpKFB0rAuK+n8kC7DFdKboLSen3bFGypHtjtH5RIlks5GKhi01aiReERQ8tcLRe9Z969kxVTjxvvIbPWY4kUwZlY9CE5fpqYyTcGl6dnlVwCnQvX1oF2PO6nh1IDstRyCoAyewFW9XcNgUCgVH07Fp4vnrpZGRkdHn7bRejccNENZlit5eNAo8u7PGJIRFo51XyjYI7WOGNtmH4zreSDJbmk3G1v3SZyYjG+xjErM0jVLe9d4Uvb3ITNLbC/b/LE1Nj03RnpLxB+Q12h6jZYSbGTBybrdsFqi086OQNaz4pV7oeM/RXB3nKIw6Djbb15i//rR6kpc81g3mlXdQIprpFOWvUGW1yzmR7Xsqhx3yET5m6kfVa5KdoreMnB72QDoeRzaRRCaZRCoVN5xOjSCTnpyzqWHkksMoJAeB5BDyZJ+rAI+28WUAv9vJeGmk01nDmXQGmVTaXDOhfTyOU8iKeS+dSYH/I6f0XFpLTmIkPYR4JoZ0NsbnWY6UwviknE7GkUslWB/Wi2E6EUd8aMgsJGvtw2yTEQCn6C0jxzPthcKKVR3oieWQdWodlDKhKA521zWSGk5KDUvi5eDLJ7D3zFrMaosixT59ZMUWPL+1HylHAA7KVFuimWeL+ngXu4u2ovbjZQmKfKoPxx06B3OnVSHoBZ5ZtRVPbuhHsKoJzmwGwqPMU+0HnJyUJ2UeWbLYmRnBvHo/DlhQy2OWO58xu1YkF6forSHHy505KkqS2W1iga20PyeCz9wTkKi2tKrgMWEePkq5dLqAbJ4dznQcfgoWxnVIXSo+A8PFtHex95mOWztRCNxMUmkWEPBZgyBGqZmjOPUEtNME8BJ5WtUwmncyKpZP+ae1xMtL+ViWkpgDhqPAmASsrHiK3hpyvNidL0SqHchI++hCESTqLHW6wlKygSegmGWtImcSALWa2fMWraMGZpScAMj4esTYWAp1QpoUeARUlqMgy4edDPNixffwX4gh7yfSVOWUgi7GN1trJiEze8L6aABkGVeUHSEnMnC5LAnsJCp3LzF3pT2P+fag3TTNbmli/V7v86+XHI/0FApPreqEOxjlqQteIkfOgTpNmU9eAF41RrsFKF8+icWNEVQE2Zns6KdeHMCQ24eUtvwWycS1Dg05jCgsIaLFTfWXzRFtiUEsbi5HY1SbRoGXt/RjTXcSoaoG5IhMM0UihO+GBCizLZ9IphBGNj6AOXV+zG7wIyBwJ6muHa5XBZO9J09TPKbsPC/dpzc2n7n7crxVZErEou5pyUytGNmu3et9/v9CjttfzBZu+q/74SirZSN7CKIsJYk2XjJjuySTkebvGBQIoGBuBB88YSn2mVdJcQR86TsPotdRhqSLJ6SJFRPtMoXDDjTAI7CciV4sP3oBDt27CbyEPzy+Hrf9+VmE62fAxedkC+YN8HZXQEpwIs7l9iCrHTexHhy5oAFnvXMhPJKoiRSlpme3T4sCfqel9mkTCuwqXyn4zJb/CXV4O4FQfbenpVEtbI1k09jz9o3xdf1nyfHAhkLhl/c/j3y4HlmHh6Cj4U2996qgo2FfoEiktWRUYSg3iPcsbcSsRj9c5cCNv1iJnnwFkk7pRxLLbipnnRnaBXhyLmjkZdnbzkQXTj24GQcurjLq949PbMWDq7vhi7bQjkxT2smAK06RTEJ6b8Ohd0YIvDwHUiHWjYNnVuA9xzYjTUfcRwPQzfzN1MpuyEhVTUQXJZtKK9CVSmq7Dm9HAL4xwJuYwvh6/jNkWjGdziGdyiNJKRHn4BbLltI7D5Ox7iXSDsQzFicymndzIlxhTCs6KU6zjX4iZ4tsnWurfSnzmr39npyiQ2H1NsuXzSOWzCKRdVAS6/0NesuUpk5XYHJ2++nNEsR8WLN+2v6u90LkmGjKJ0fPeCLoTOOPsgaBlv48qK7xorHRi7p6LyIVHvgDLsNuD50Tp1ZICGzmVLopVddLz/81rDxLWEZzCVvzmuKxuVibTa9NTM9ct5+322pPofza5EyxpRNsvAwlg6YyMmxDvUiTfVUmGCh1Rpn2WZac1FuDTDTNCHqtMJsvMo9zrID9Z455rZRl22VzGRPqJSK3x/IKNBI9bq8BTZp5Zwh4wwS8uTYpF3ifdclkyGnkMinJZuOMWHuYWYGSRhTYdKq8DDMuc0BP9w7cc899+NWvf4t77/sT7vntvdi0eR3bJ8E2iLO+wxwgIxiJDfChDIZH+rF9xyYmlSb4ZIumsbOvy8TL0w4u0OVKZ0ZY34Q5VqjzVJr3i9cy2Zg5Hon1meOt29Zhy5Z18HhUsAySyWHE4oNML0VTgpDPJc25QpVL1z1eDewU21AyK4NwuRtbt24wz7rolTmYToCDJ19Ish4xtpFVBqeLQ5WsedNMLo4E4wvE0hpvNPic8jzz7BErOTNDx2Yfe9VwcqaapXox4liheY4npgctUorW/TEuHT+l1/WcvWvY2k3M0KRpk6XWC5SMk5dnIiu+RUreztlkJafIOEbjG9CKZ1MBDdV+XPCBc/GhC8/DVVd+AZde+il8/vOX4YUXnjWvcNbWhdDaUonmlijmzKihdPTD53PjsssuRVVVELlcGvX1Icyb14za2ihBkTT3a+sqUVVdjurqMCoqyilJK9HCNHQtyDQ8lKQ1NeWYNq2OkrYC27ZtxoaNa42Era0NYta0KGZMryZAKDASIwgGvWhurkZrY5kpgwZvMkXwEiyx+AjKygJYu3Y9jj12GZ544jHGp9OXIsg52CsiYZaxAi3NlYznZ5lTlOoB5hNGXV3ElMuleVizvmV6zbTOG0ETXMsiqeNfgycjmToTzJ3xpHvF5+1q2GxvUbfDSfPQdQb2/d1yMe4/Q1I0ZWVleOjRR7Bx4yvYsnkNtm9fj/POW84OjeH22+/Cd//9x2htnYMf//RXlCAOfPe738WKhx/GzTf/FI31EfzmzgewZMmBuPbaL6O+ocbYfr/73QO46KIP89pXsWrVi/jb3x7B5ZdfjaOPPhaxkRFUVJZTwt6Fj3z0E7j44kswfcYMAqDFgPb22+9G66wluPCiTxKgboI2yvZ24n3vOw8HHno8Nm3ajNbmCpoSOYSCQWoKN8EI3HP3Pbjiiivw2GOPEqxJAqsKTz31FB5mWa+77hvYd+mhNHPyiFZV4A9/+DP+8pdHWJ7jmf9nUB7xstwauG8s6UMApkEmkjrQllAT2XQ+uZRKC2cZ5mLZQBbbO19GmSnYnFPIa6Mhedf0eU2etMJiHMWfjE26xXjWTpax1MxKCm3Q1yJ7XjMWizM1esLUNlLT8XiOAInh4osuooTI4pRTTsYXv/hF7NjRh4MOOgjuSAQHHngg7rn3Qdxyyy345Cc/gcefeAJf//r1BGcQ3//e9/HSSy/h5FNOwZq1a3HGSSdhzty5lJJVuPLKqxCPJfG9G7+HzZs2EaAX4cc/+hHB+jts3LAF/3n77fgiAdS+Ywdu+sFN8NMOveD88zFz5kwcesgh+PjHP45n/2c9ysvLKfHyBF+Iz3WZLWVKK8tKCOxhH9DV1YkzTzuNUjaE/ZcuxXvf+16tIeC2X96Gj3zko3j/OeewDJtxww03o77O+iLEG0mjPSBv0TBtohRDwzqelDMm3ugz5NLO1fGuLACMsQ2wURZoiqHuWR4kgWKYipHXxPzPhAKU3qvYHdvAs1kdIVK6zj0AntRpTU0NTj7ycJR7y1DpD6GmbhpWPL0CdTW1qG9txUc+/BHcdNN3cfSyoy0wnXwSjjlmGfbaaxHuuusuHH/88fjwh88lkG7E/fc/gLAfVGURfOxjH8OhB+yFYCCAVoLuogvPwZ133kG1ut3w7Nlz8PnPfR6HL12MpoZGzGibboAYrazEuee+D/f/7m6TxqqXNmP16tX42levwb/92zVGMj755JMIh50YGhxCtNyJ1atWoZb1qKkJ4KzlZ+HPf36QFijbgbp66cEHM59P4vs/uJES1ceBsInqvQHnEHQf+tB5+MlPfoLfUlomE/+0AtmFzHsv9pRBKRmJtxvWvYlkQFEkswt4ItsAKLKcjpycCpvloBRDCzyKb3BmntNoNQ6IQrLi6EXvydgAj+nkmYc2s0qNWGUoFnAC6fLEWxxX6Nu5E9/9yS3Y3tuDje3tWLHiaSMd+vv7MHvWLJPmQD8Nek3vkHp7d6K9vYP56qyAaz57GcJlNTiS0qiqKoru/jhtpzpKvgA9dPMIjjrqKNp/YOfSCQiHjYT1evWxIj8oXE09enp6cPI7j8IRRxyBqC9IYC6Aj85XGaVVx8aNqPSGUOGL4Pe/ucOYB5LOAT1PZ+/555/H1770JYQDNXj3O46jnfe4WetWHQ4m8FTWwcFhNNTXY2dvL+3OCsyfP89c7+nugpf5qC3eaBod+jYw1Jij0khSaDJWx9rxiywy0qmYog0wm+10FddcYzql95WuHSpv+4XtXUBevKa+VTgp654d2X5gNzQRcDZl6RmrrOqc2vIAGmojmN5ah0iZm9KQDgzr46Ru8gf87OyQmYMMhoK0n2ppf8Gouzvu/x0SIz0YSvRTIn2d9luQKRcICh/T1uR0Fvfdd5+Z4ikr8+Dll18xksfK30Kmm3aagLp23Q6cT7U6RG/61ltvxWc+8xk6CWkcsmwZEoUYrw9ifWcn3kFw9fXR6SAo16/fYiTgK5s3YzjRg8HsMEE1H3979BnMnTsPT/3jKaNea6vCeOLvT6CpuQmbt2zGMytWUDNIC2bole8ELYQ9oGJbj/Krk4GJ1ckO5BQyR/tF6F0TG8+25zn2bmuxI81ckjkYZeP1loSTXRsNi/krLSZrrmmniRYrLNDLK2Xcgu3pWl4sS1CcDhHpzDxcPLevipQ+j01kq+yl81/KWc5Cd1cPTj/tPTj3ootx9rkfxLLjTsLtv77bmBnqoFQqhUQ8wQ7egKGhYaPGH3roIfzqV/+N5Wctx9XXXI3l51yEhQv3xVe+8hVTgo6OdrR3dMBPcApkA9u20tG4nsb8CcbO2mefuXh25bOU7jnT+Z2dXZREO7Fhw0YcsP8B+OAHP0GH4Ks49dRTMWNGE+pq63DkslNw8klnYunS/bHymZVGSgUCTjojt6ODkrqpKYLOjmECnSDjwLj88stNHQb6B/CBCz+GpQcchmOWHYOZbY2IlEewkvl/9rNX0ou/3DglbG5DKr/Fpb1YZKspS9pfxJPdsOu0T1177aPProczQJffSbHKJyVpnPwzi+gmnsISZtICgg5z7CwPR9ySaRVorPEhS9vosWc2YSQfRAZ+Pj5WzELxeXOusHgulkpx6nsoDB2ZGBZPr8a0Oh+8vL1+awLPbh6AqyzKuNbkr9cVQCHnYmNSvRq1bV13aa1P0tWZp4OQhpcSIxcfxLTqIObPqDK7WvLaj6fdOCZrVpB10LMCndOAr8DRnse8ufOpAmng8K7L6UYymcKceXOx9957o3VaG5qbWyiRPJg1ezamT5+Oaa3VqKquN/Hec/o7+fwiqra/44QTTqCd9x0a+WmqtAbagHujujqKdes2I1JTZ9RviBLqOtpqsZGscTQWLViEYDBC26yOAJtJh+VghjPocf4V7zzxRJxxxpkEfpbhu7BmzXpjZ3//Bz/AsiP2xc7+mNlyqM+5Hc+8W1tbmHeSbeugDdeIeaxDB8FfW6tpoBAluBv/+fObzcLAY4/8HXNmz2Md0lTtR+Lc9y/HwIC2fFgtZEQ1We8lWn+6M55FDrWr9cSk5PjlxkLhhtseg69yGkGnb8axA5mwi5aAgGer0V2InatO007hUH4nzjuyDfsvqECGI/n6mx9BV7YGSUd5MbIKYhfJInV6Kcl+szcJuOPdOHvZHBy+OIIAgfzAY7342SPr4KubTjc8yZKx4nkPweZgmQl+gkwTti4eu7XrhOnFs0mWPY+gm4Np53Yct6gJ7z1mNvwSbBztXqpGwt0MMjWQ6iy5aW2ZYv0J2KoqDyjQqBoVB/BQP8TYOfpsWjjsweBA2kgmzZUND8eMBAsE2G5Ms6dniJ1cXtw7CGzZMchODpI9GBpO0D4L4Oc/v41Ox+9wzz2/oZTiM70JJAj0xoYopVyM+QbMvJ58oX6CqbExpI06NEcoObsS5t1UD/V6uJy9xTi0DmhjDpq2dnFgVVaWGZz09g4au1FrzipjNOrFt751M559diV+/atbWAfZswnj7JxzzvtxyqnvwoUXvdeAt6cnzjBvBthYp7GNS5YOdyFGs/RNKXbsZy1y/HxTofDvtz0Jf6SZ3eDiX8LqEH1h0Uwg7EoG+2Y2mzFZgFCuD+ctm4alCyk1+cg3fvQ4OrIVSDjD1gOkyYBXWiw1ijpboSfRhfOPnoPDtFbLYjzweA9ufehl+Ak8RyFrpFImHUeBSEt7KSXZyMFgmSmXWSRjaydp/6jBXCxfoa8Lx81txpnLpsNH4LlTBUQENAIz7aJNWWxDgc6jNWAdsyzy4BPxuOlcs6JCXaXB5iJotVFBNp4636XZXJIGqRwZDwst+0idPBITgPw0+PPGYcjlMgSBlZ7sxD4a+bovL1P56JlEPGnKIKdFHez1UpMQHQLP0NCQed7llpbIknNIJJOsb4qDocyUQ/adyiJTQNJdaThVXuahrzxonk/lUqhnkomUqUM4XI44r0sNa8pJdrjmA/WcPpg5RkXglXZgKZm+tQRTyQUrLJJpcp1anUZVU+Tio7v/U1pM2E7P2opkJ22J5dG4+lPcUuafVZpiTPPgWGinZfJxUsw4+9kAHRzJm9iIm1Dd7EB0WgBV0yOopgoN1gQRqA7AW+OHt9aPiuYoQrVl8PN6odKHfq8Tg7Tb4wRyRnYsa2mX1crUZqdRqzrWUl1lZRRl9Db99CYrKqJom1ZHrkZ9faXpEBn4ejxHEPn8Vifx0IBFzm6IA0Itq3MNLI/XTwDnzHNaJZgzu4lSMmSBg8/GYhz4PHa5POa6vs6qD13qY5L6oGVZiFKU5VIcrXBUVVdSBTdgzpw21NVXG2dHg0IOkFggrKmJoiqqj1fSHmbZZApURaup7muYthyhCg6KIB2anBnAHo+PUrECs6dXmnaQGh9P6jOpDnXSGAuL5riInzEqPbbIdcYl1177+Io1lCxB03j5fMaEGeoghRrBu7KmQ/QNO3YiM3HlYjhgRh1aa7zIMvO/PrGOXpYP6bzbjFrzfm4xFEsSmZBp2dfUIl5WWKMw2d+NvVqr0FYfhhzBlWs2YuW6lYjWJTBvRj8amlIYyqeQYSPnQj6kWFmzWO/IsTxpskrFcumbMASavyKIlJeG+kAG1eUhlBOAWsc3PrQseOFNbcfAHLIsKpPX60YHjfsdO9qxeGEdhmN5/PCH/4E//vEhdl4G++w7h5JL7STZACNh0vqADInNg1Sa55IekvbsFaVpJq95rksvvvASvc6VmD9vvpFcclBk4wYpZTQlJcmmqQ4BRd6ttIEkl0wIv9+L7ds7qKbvwf0P/BErVjxHXom9liwxceNU2fK0BdAnnngS27btoNfabCSmh5JTUz9Wba36+ilph5l/nBJeXnQHPeR773vQeMHKT+CT1FP5FJ8txDpK2sYpJUc4KCMcHA621TbEmIZsSElvSVRLWtqta5HrfXQunnvuBYQ8LnjzSfgKCXhpR3nZsX4e78pxE8fD+yYeHYuy3BD2m1aFpsqQafBVq7dSXaTpdORoUyUNB5Re8dgwny099+VoYzD00LHwpwdw8PxWTGumyiBw1nStQc69BSed2EwHYQANddqiTPWSHkIyJ6M5QfCPcESnqCvZkFRDDqphfTkKToGLaodqsW9oEF3tXZQalGB+BzvR4M3IPg1Ws4xj2kYSxkHbzYVLP/NZLFgwD9GqZlxwwfl46OG/YUf7dvzpT3+kpIjisIMXI5HKoaY6hFAZJUVlgJ2XMZ1eXxemxAkQSF56i7JMacgk4pSiflRGPOjZOWS84zlzZhnp1NQYYZ5BdphUm/YdOilZ/XxWabgJYlaP/aTOrqry47v/fiO+dtVVGEkl6aisNd7w4OAgjjjySJbNz3p64fV50EnvfJiAWzB/Dr3gINPwMt0w8/IZe1WDwEs1X0tNYeXlQldXPz3p9XRq9qHE9zAtHyIRH2qoPQaGNZiA5sYy1LK+0WqCi03t9Tlw+eevILhpUxJ0t9GrPvWUYwlMS3VbZIHP8UR3obBpex/KfLIPZLNZYtL0mTpCZMSnTcK6k3KFDcncrZd9kmiuoAvPRnHShti0bYB2V4jyhCgokgo6SjwuTVFk+lzXGRboGDRV++GJ0KNN7sCTL9yNmc29aGlKYnhkK3wckcl0GTb2BPFyfx0GM9XsUj+S+RCGHFVIggMAVEcFJweISutCVgimlxvACCrzIziOqmlBVRQVtGUDNFd9lPCqr7xhla6WHfvfd91vDPBvX38NPvP5L1NqbMPPf3ELopSYj6xYjRNOPAEvvfyyGdXf+Mb1uOHGG8xy0zf+7Roa63Gz1PWb3/zGeLIzZs6kB3oG5s5rwd8eegrr1683y1xaeXj3u0+hhOhhJ52Krczj+f95gR5zlBKt30yxrFu7Do899hgWL2pFZ6ecClDFBpjnDUb6fOWqSynjLQV3yqln4ctf/rKZE7z11l+Y+UTN+emr+HPmzMUvf3kr2jva8Yubb8ZNP/0ZLjzvDAzFgO7Obhx99NFoamrGA7//PR2gYTPPt3jxYrbBc2Zy+StfuQ7/8R8/xkknH2tewvra9T/AV6++GhW1tdQCfzTq/uqrv2ambD59yYdw5vKLcMkll1IKL6IUlLq2O564+eSXrr22vjGAxnoXbQEXqmvcqB1lD2pqyQpH2YtqXovWunifI7LajQbaVUEa1AWqi1gyh+ZpIUSZVlUNaEcUueS4SsxzhdVV1rVo1GJdq6l3G291C1XuKz3PEMRrCexNcKdfgc85AEd2J52AHtTR6ywLueFzDKGuLMYy0KPL9SJLSZiVaiPwnCyTg9I24MtQIu6kibAVkTIOjPhaBJ0jCNOm8VIfe/IcNGwQKhNKywJHvQfXfvlaXHTRB1jfBqofH67+7GVIUW0cfMRRlE61BMWZaGioNqDbsmkTbrnlJ7jzjl9j86atOHaZpiLORUtLE77+tetwx6//i5JwBAcfvL9Zk21qaqS0idGz/RmWn3kWrvjiFTj99NNx6GGH4tvf/iZOPPFUXHLpp5nHGXjnO0/EJZ/+FI57x0lmIV9SU7tJHn/8SXqd3Tj2hGONnfn3vz+HP/zhD/jABy4gAK6iBA7hppt+YPJYs3YNDjn0YCx/96n4yMc/hnmLFuJ737sR7zrtvTQXMnj/+8/B9dd/AwMD/Xj44YeMpFR9tOx3JsuwaNFinHXWcnyJ6Z533gW44867cfvtt+Ge+35LNZwiWO9n+d/NZx81UzR7770fyiMR3Hvvb3HiCcfQ+bEmxA34yO4kR89LW3gsgaBrRZLKnCiVbFIlLZ+WUpHDrIwqfDYFZshDKVjhxNPbgWGmm7alK6lU4ild5aVL8gdte1QebIzakrYz1Q1tu1deQLhyA+ZNd8KXoc2iuTrZC8w076HNkd2AOl8vqhtC8LgCTIJqIJbDxr4oVvYk0Z9rY0G98FAtuyg5m6riiAS6Ma+RasUxjOHtq7GNkqm8ZRkbgjbUMOUG03Z5nBzhAyyDhw5AOaVFHIccfBC29XZj/oIFuPEbX2fBPXjhpZfMFM4DlGwfuvAi7LNoNs4+czl+9KMf4YrPXUZw1uHC88+laVCLww89hOr5T/jMpRcjPjJMYB6Nrdu3Yel+++Gxxx/F8PAQzr/gHDNp/LGPfQh//cvDlLBbDRhlY938ox9i9curUVNXTY9bpgRQURkhqL+MW27+PsvtRMB09L0EZ8TYgBdf/FEKigoCMGjWeTPpJNrmzjFgDtD+XbnyGfTu7DHrukrrhOOPxLHHHklbNYcnn/oHpk9vYzo+7LvfPrj440yLKvXpFf/A73//AEF4Jt5zxukczE6ce945uIaSj5YBO1NrT1kEA0B9Qz26u7vNdM1Ecr+8OYtrf3grHME6gkHvIchQ1k5hGrHGTZmMZLpTb/NI6qw8M4grzz4S+82vhzsEfPXGn6DfFUXSObbWUjqdYn2HWJ5jgf+njYoTcCRtYpkReAMZzJtXhcqyzZhdvhGFTD8TGGIamquTDcAy0nZzOkYQoM1p4JulF+f0IEQ7w1/Tgni+HJ3xPFIJdlJuEK21CTTWZNDbtQpOuraeYB4NzfVYv+FFeDtrOHAWG8mndzo0VS8DeWQkRtuL0pctt4Oqcfbs2VSJ20EHGS+sWoezzz7bTOhq08AlF38Ql3z8E3DQsP/s5z5LG61AG6/eTK3Iy5SRLrX61788isaGRjPh/OKq1WbZrJ3OSzwWp302YlYTZs5spj1VgVVPPYW26gqOQnrUNTXGWNeUSj+lEhAxy1kfvvhifOfbX2d+lB1shv4hvZQvB5EDiKBg1sYp0XKkHJP6ujpjzmze2mXqJpIjEKX3Hk+w3qxztCpsPHCp5xEOkgaWV3nrOW3HkoRTHvPnz8UQy6BMjjmOUpf3Nf2ilSXt7slmZOuq/srFoGWUnZ4yN9zBSoSi9QhGGxGsbDIcqmxGqKJlcua98oomciPC5PLKBnpw7PjibGm0upU8gzxzUq6qEs+gmhVb55VV01ERnYaquja0zZ5BuyGHuoY49ltCo93TDYc3jpxP79emkHOlLWlM0BOFOiLRy85SCtK7rfQP44CmzVg27Tnacs/i8NaVOKJtK1pcG+CN99Ia9LGtKhBPZ+GvTOCZNX9Ce7wbI0yqwEbUi0RaMQgEw2a0lkfC+Na3b8DlX7jSTNTKXGmbPhN9fYNsbAcqo9V46rmXzZcOhmODOOroY1gaOjejG1fBTlrMPH246qprcNyxJ/CYip1iS4b+vPkLGMNBu7IMs2Y149d33Gu8ypPedzaG6IQNJftw9z2/pXOw0Ey3aJpHnay5QX2pQb9V0t7ei66eEaTobatNclnNN3rN8NY0jM6JBwpGDx0JBwHsZxjg4PWirW0mn+9CecjJuoSN1y4ABoMhw2vWrDGbF7Sm/OCDDxKIDWYp7bLLPodYYhBPPf20qYdIHrgmviW5NSU0bv5vdNqK5cgyTGvN0+UnB8hBE+bdfrJvUi44/XySos1Br5NSreAMUCRHzFqgqq13HbL6CYOCdzesVQeqNobZvHVtiJ7giIYJnZOyqnLkvVmqWU12jpi3/hPOegw7mhF3RpFmvnnjuGgoWZXR1IORxPkMnZM+hLERdd41aAmvR1tlO5zDqxFxD2P2tGY2fgArX9yEjoFhVNJOLYtm8WL7BoywZXPMS8uB5SGtbLjpBGwWpinFvoDNm7fjkMNOwP77H4qDDjwUy5efTXvGS5vnA1h+1jk48OBjEOEg/MvfHjEec2dXLz1RDQjZuBHar3V4/ulnaecdZtZqe7p34umnV+KA/ZfQy2zEvkuPRF3dDPzmjrto451gJGbb9MVobV2I0959Onp7+wzo9JNfmlrr7xvAhvWbDCDC4YgZBOJUMkvJOWT29sl00ZSMnt25cwAbN242z7KTsX7dJtqIfdhn773MIGhsWUhNs4+xHTVl9tJLL5vJbAHoYkrWhsY5vD8PxxxzNA466BCqVw6i40/DN7/5HTz//CrGA7q6e+hhb2AGMFvI9t//AHNsgc4mOhenXnrttX/5xytw+qPI0MOTQW6Wojg8pPqsLUpSrWbmxvxptGm6X29ypRk3nxjCoXMb0UIHRQse9z66HjFHECk2kElDT9GQGz1mWtZuFP6v9DUPRz0xTKegUlu4qxwYiXdRbcbQGk0SKCFsGWxD53AVRbjbTMo6CDAnpRtbjKPLqpRKqDVCh7byy/ikOs7Tk9VQV8MWXGUIlLdgU8cgNnb2I8qOjQQIL3cFNnaVwx9uQ32IbUCRlst50EwP784776LdczwdnwgOP+xoM8mqNVqtlX76kgvR05ukxJqORYv3o4RhB1HdfujD52IkVsDiJXuhpXUa6+jE4FCCHbwvTqcj0UCQSUrV1tZjyV57o7mlEYcffgwHWc6o8+9//wY6M8AhBx1tJrDb2qbjnrt/hYqKKiPhpEY1iVxHb/nII49inFoktdBqOpdChP2jDQOzZ80xkq21pQ0LFyzC9LYZBMKBtD0bjZDYZ5/9TNqRSBDveMfJ6KOaf/dpp1OSfZRSqxxHHH4kbc8RbNu6zezR81IofPOb3zTgX7RoPtObzXZ14guXX4FllPIVLMfMGTPNZoZq2pbXffVb+OQnP8X4FGRyGopCQuz46ZZC4crv3YNg1RxKKkbQFhDeMy90M5S7PpGcvOHKSbV6kNRcXWwHrjp1X+y/yIcUBeFHrvs9+p0NtPHCxSeED2VokxIemzvTn5at0q446meGqb7TcOU70BLtx7TyzYgN9WLHYI2RRHXhHsyo7seMSDtVZjdTyJvpBYVM1ISa5qGFY+aW8qxIHpUc+XX0lKvgDddQ2r2A8qqAMf4dqQLWrge29u2DvaYdhVOmVaE8IZuTKpTm1ZVXftuolgto+GtuuCKivGDWkDd1ysGx7Ce9XyGSJNvekTQdEghQmlMdmolj3lMbVFRojixu1kW1DFZR6aaBT/VJ2y1aKTtVUiNl1mxDZWW8pp/vAsw3h6gQNJGb1fIiIwaKi8ha0Lf6aayNG+q96O7JGTtL9prWkPWucTDkYFosM/tZ680pSkTZs5o0Li/X2q/WZ61lPZmXD/zpaeP9/v6B/zRqu71X9l3K1K+xwVoLVtn8LEp/f5y2oBc+v5te+tVm+ub8888heK34VvksdvxsM4F3450IVc8l8Kg6WSBjn7BiphsnAZ55lG6pgzI+Sakj4H3p1H1wwMIQkvRuP3zd79DnaELSUewl0njgWeA1b/szeS2hZSmh3OVA3awQHcYBlLmGEKRN5/Dm0dvTQ8OfdgOlXDiYRjOdjsPbXkY51jJhAU+gE7Nn5HxIalMy5qnO8w4fhrIz8eK2hegc9MMfGkSInm1LjWbwA+gebsPmriq076zBQg6+C+bNQA1d/yzrrcZyUxKPDMcQLgvR7pEjY5GbddfbdAG6b5rNj8Vipo6aSlCoztHaq1YKtNXI/iqp7gmsag3thNZ6rwVeSv6ctfYqQ15AEJjkfAwPDxMkYXMutlcClL5CSUqR1bljpDVl3dMKjJbo5Exo04GcGDk/EdqusslCIR+dCGulQ+UQeJLJhAF3KBQg2Ang4oqMNJTyURll99nr1CI3y6MZAN3T66RaEhwe5kBhHcwmAws5hi10GdmjmX7TdcycGRT7UgCZyPJkDTgVRWpSrBSK9TbeMOOYBCdh62M5PCbbewEzBJWXI0Vsluokzwbd9EwbkQ7sTcdiOrLeVgzmp6MvzWuUYpo+UdlLy2FKxcJLkmri2EHJXCiUYc3mFGL5Ghr/BTTWVqOOkifWvx3b2tsxoO3A3iCG2Qkp2mTWchO9MYJO3pufxrK2X0lyiNXApo3I2oygYx/j+ANB2nTaKc1BJGOb7RAMUSqwfqZxyH6/nA1qDN5XPbU+q3aQbRYuC5s1UmtdVq+LaoVAaYRoJ2qTgu2dsgymI9WOWuOVVLS+fmWzNgHoOzHaPZPQy9AyNVjODOunslZUhpkmQUTwq3gqg9jsXI4nCHxtbhUA9ZoD7eZiuspHNp9UvhwK1VXlkfbTxgiZNGKtxAh0Ar4GkZ2+TUZWcIwhluaoZWJpViSjUclGkTjeHeu+pIL97qwaSMal0pP9QiRQ+LCoRdYee5s5rIkNvWvLZ1mdjNZYCxx5YS+8ZgA5kMjRifFUIMeBVmBaKToiKToVCZQRKF509lFqeCLMj8CjlLPTkmAx27l4TdPB2n/nK6TR1uyBM7MRDWVDqHD0wZvqxcx6HxZMY4T4GvbIiNl+3t3fD184ZDpMYBMwWGLTZtqxIlZFFfqo6iR1JMXU0Aq1TqpQJOmk65YatCiRtABs7jFUxygPa0cLQaL97hyYWbaxOlDtbLWtBXgdiwUCgVBsj2nrRSaLtbFBv1qpZ5SPrimO7GsdW6CzpGKSfa9pGpVDGxh82sjAchkM8CFdL81X1xWyN6k12E+mLEpLg1WbIyxBJDLTUXIa1YCGrFCajpGkkmgLkTUxLOfCLOCXsC3mxVaFWQmFfHq0AUySAool0ZSFzaU0ds5nbIlZfINdYFEF5bVq2UsjWikZm81Bb5iDJEPHZTgdIDip5tQwknQKDStvkUpD4BCAHucw5kxLoLV6Byp921BDdevHMNzZfjSHY5hRW4DXzZGdzyKlGlEdEevjaLRuu6vUq5H9cAmNXSpNcDxbnau49jGvm863nh+7/8/xeHr1/PeUxxqqlMbOzXKs9oWVkp7RFTW+zfJCbbbBpufGA1JdTTbHjPsqPA7EE/J/LRIoh1K0S9J+k6e+z+ehd+KhXTdqDjCekYQuer+ublR6n8Pi6VvRVtuBXGotnYcEHGnaTrmdmFVLqeBJI07YxSl5C8S76mzaQWxl+6pE7O+ei3H+3ybVwmbRa9WK91n33cWzxcMoWWCglGP83bIiMiwlk0cJTXxmtBNLuRh3Ik0cCBNJIl7fbknRfjPA4zUXE3QxI4HOxGGPS4oWzGrHCEKODlT7uhH29cHvjtFckD3AarAyIRrTXiftk3yCkl5K2yrfKJUev8E0WU3HX5ss8ze+QKV57pq/nZ99vKf5lz43nkaBZ0sgm0sl3EQelXhi9rzZr2X2nVlZaOeudsQm02Os37AVl54rlPcnNmWQWmeapWTbSxNJtpOWb3Rf5RhPPDfzeLJjZEgAYRcdkXgaBToLhaL9VnCWYWsv43qq0VBeDm9iCH45TrLFR1W2RfZgeSPJlLqYbimba7o3ruNKWWSH/zxNLIc51rVxeZQevx6ynxv//Gjraou0Ge2G9QJNnp4mO2gSNh/hYah4djiRVIFJpZ7uWVFGQ5HcdWNL7oHalcUXDrjgc1lvYklCaRI6p4lj/Zl8ZAvRPiQodZTNpKB3OgKBcrh8dcj6ZiEVWIKNQ014qTNATHoRoFFd5g+aBJnEv4Ts9pjIY6SSTMZvLL12/q+XSp/b9fkx4LHT7d3ABlCUYpO9LG3YjkvQ2c6H+T00pq8EjRTi8USeCMBSSlPqabpA0ktel0WTNwX9bpT7U/A7YwZ4+lXujIsDRV86MuCTc+JnWn7jbMhhyTiTyHgK9IzL0BWrwvrBefj71lnY5j4aT++oQ2e6Fs5QLb1BAtNkv+tgmqI9Jbv/RKXHY+SUW6uOEYgsT9Y6zpvJzN1ztqAdEBQN+j13usLGm2Ee6i7zm7GjgLF5jCypVJRMKpcscDP/xXx5wcioInjl/ei2lYp1TyV2u50GdIrkKFhzYRZZObMq1kNGgvKa04Ukwtg+VIfVHQ147KUAXulu5Hk9hnJ1lHiaGgkh5Kf6Zr2U5x7T64n7/w2ZjrUOJyFnJASUaas1VZ35RARZx/ks7aHdsD5nlS5QguRpDPEfUvqQIsHmsbJK6Pco9PsSyeQop+Ixw8mEWN9eE8eQMOcJ2llebNvaTlsR8AfCRjKqR+0PfCtlTffIlcjT7YzlvBjRu5R5LzzM2Jt106t1ETREHAeF00FngZJRW6k0Sy/pN5xpwLqhvfFcx0IkfAciWWgisMsQ8QbhTKcxu6XFfMVeduDEJhMQd8vFOFO05+RsCAMXnnYMArEdCI1sK/LWkmPx9nEc5LVAbCuCZN33xzrNOxSgjyBBE8mNoDLVi+pk9yhXlXBlqhvlaXqY6S5Upjt43sF02pleDxI7tsBBYMo2k8Qbe3uN/0lyMYesw4dtOz3YmawkYCskLHlf9hz/px2nrT9ueOFmPH05NO+NIuWeg86R6dg2PA3DrnlIoJ6w1DIU41IqljO/qNMJF4Fv1LOys6n0eIreEHKsiRcKFBboGbSMdHv0qtOtrp6EdI83tMEvr5UFCqwoDf2A14UshVB7bxr+oF4OHyPFt0m7j/X+rfLyEqkKtatlmAfrB3N4eM0adGp9kQDy5y0QyHYz9htPfNiJcHYdljR0YmnTOkSwgeo+bqScsilQIhZyZYQoJbkrjRgasXlkCV7ubEBHqpUqt4ZmgiIqZ3q89MIXB3w4fu4sNPOSV1+FZ11Kyz9Fbyw5nt82UvD6aIRb20RHyXSg1S+7dIAuG+ARsFlKm0wyjaBsLsbU/jMn5Y3PR7VY8uA44PGWXoNUQl7ai4qYJBByAQ9iAeDOf2zGiqFhDHsCVLW0ufgnr9X8npkzy9STCBZiqHFvxL7NazC/vhvO+EbGjSNNBKdzlUjlmmgOBGh+jvCvAU+va0BXshUZbx0cnrCxHTWtIlVemUrijPmzsaQygIB2F1HVegj8cRWYojeUHGu65B3YRrtFau4i5kha8ywl68x4rgyNLSaWZ8sL1iaCYhzzP6nYf6NAZpi3l8iKiNTGAvOCDiXNVnb+LU89g05KvIK3DC5/EAnaYHJa8k5rq7wr7USZcydqy9ZhXs0WLKlZj0J8O6VbDTb3VWN1VzNGshX0fguoiLZiQ4ePcK1GhupXL9t66Jloi0GmbwCHtLbgndNrUaUisTiyE92W52LKNkVvPBFtkiea8Sf0DHC0CmAzO0CdzNBi69iOq64xgss8J8BZdpbpPJM8D0Q6IVvXFDINKnaloxSYqkGwDHtfMocmIuLk/fZBJK33dvVDfPJgmBO9VydVrzOvRXat1UbRGW/B2t5qtA+UIe2qI7ii6Bp2oycRQtI7E93pWVjbFUHCUUVgS/2zFAV6z9oQ0TeIeRWVOIig0266ghbOWRSnV151sexT9KaQ00gnAxT9CUACl4BlSTADIgOmIqAUn8DJO2lP6cvmPNPPO+kXgXxkHVsA0x0ZUrIcx1hepglNOrKj2MlaLaBKpUEGN9lLm3FBuQvHLZgLn7xo2mCKQ+XO9D3m56Dckn6UkLFCBN2JKvSkW5DxzcYIvd14og8V3l7Ul6fgoMea8VQSlLQ/aYeqzAK+ftmnNliO4xfNQIOKIgeF5kGewNPua5V+it48okKxm1jzZdZMmcU26aiUbdJzVjyxBVIrrdH/LaSO5+JdnvCwCHcTmitgnxuHwzecxQFNFTiwqR7RVByhbIrgzhiJa+IJ/ARtFkHE89XY0BPF9tg05IILUdu8CHvNn476ijxiwx3Qp/TlDyt7N6VdgGCu59PvWjoLM+nV6/VM7SjWBLg2LIy1yRS9WeRY10kxVSR16J6QOlG9aGBXBI8kpQUIqU6SVt+to0lp7I6dK7ubna73J9TxmiPM0+kZoiB8aWcSf3rpFfTTmxnRa160+dIZqnXFpQTzOkbgSm03oV7wbqrxoi4ch8fnwys7ctjS40Gq0Ih03IlQIYOFVVGctngmnQomRUknMI6tCVsl00Da8xaZotdL44D3diEteCGnD9S46Wy4McBrWzLAszvasaZvJ3bql4jcAXqwLDptwEwmjkh5kMcZetkJeHJ9KMc2TGuIIFReh1fW9dHTbUKZrwqLWhtwcFs5oky0TG+8FGkMeDbpfAp4bxa9LYEniacfADE7Xp20zQgKQWSYJW2PJ/Ds1i3YnExiIJdDPJmmTcb4jGfmd2jL6afqnYlheBIDmFVVhpaqakSCtWiorEFdudd8KyWgrdtmOc2iKeD9a+ltCTxb3Wm7VUGAoADUXjt9gDHtd2CQGOukXdY+NIKdg8NUyw70DceRzFAS8tGAL4RagqySrnmDJ4mWSBBllJzUymR9xUoeO9V0Sc3HA88+ngLem0VvU+BZoDMh0SGAeAgUTTwnKNQyBKAcCxXcLvy4Y+JFqyOaEvIToG7jpdIm5P86Nu9+KNKr0hTo3kx6GwLPKo69uVNgEfD0TROBKWW+eycJaDsAxblDHfJcoSa16XuYE492mvBGRmpbzzGOPU00RW8dqXveRlREA1Gh1xV17iaKXHlNN+urBG7e0iQyda3uMo7ZgqXQXBlNwZCSEEANSDV3qLtmzrCIyil6iwj4X9KyoLU83bljAAAAAElFTkSuQmCC;" vertex="1" parent="1">
          <mxGeometry x="353.24" y="325" width="133.52" height="60" as="geometry" />
        </mxCell>
        <mxCell id="2PVGqbzeeDRuflCeW3WQ-17" value="" style="endArrow=classic;html=1;rounded=0;exitX=1.001;exitY=0.456;exitDx=0;exitDy=0;exitPerimeter=0;entryX=0;entryY=0.311;entryDx=0;entryDy=0;entryPerimeter=0;" edge="1" parent="1" source="2PVGqbzeeDRuflCeW3WQ-1" target="2PVGqbzeeDRuflCeW3WQ-3">
          <mxGeometry width="50" height="50" relative="1" as="geometry">
            <mxPoint x="250" y="350" as="sourcePoint" />
            <mxPoint x="300" y="300" as="targetPoint" />
          </mxGeometry>
        </mxCell>
        <mxCell id="2PVGqbzeeDRuflCeW3WQ-20" value="" style="endArrow=classic;html=1;rounded=0;exitX=1.001;exitY=0.456;exitDx=0;exitDy=0;exitPerimeter=0;" edge="1" parent="1">
          <mxGeometry width="50" height="50" relative="1" as="geometry">
            <mxPoint x="174.92000000000002" y="343" as="sourcePoint" />
            <mxPoint x="330" y="337" as="targetPoint" />
          </mxGeometry>
        </mxCell>
        <mxCell id="2PVGqbzeeDRuflCeW3WQ-21" value="" style="endArrow=classic;html=1;rounded=0;exitX=1.001;exitY=0.456;exitDx=0;exitDy=0;exitPerimeter=0;entryX=-0.054;entryY=0.933;entryDx=0;entryDy=0;entryPerimeter=0;" edge="1" parent="1" target="2PVGqbzeeDRuflCeW3WQ-13">
          <mxGeometry width="50" height="50" relative="1" as="geometry">
            <mxPoint x="200" y="445" as="sourcePoint" />
            <mxPoint x="315" y="492" as="targetPoint" />
          </mxGeometry>
        </mxCell>
        <mxCell id="2PVGqbzeeDRuflCeW3WQ-22" value="" style="shape=image;verticalLabelPosition=bottom;labelBackgroundColor=default;verticalAlign=top;aspect=fixed;imageAspect=0;image=data:image/png,iVBORw0KGgoAAAANSUhEUgAAAJUAAAC3CAYAAAAbxhxyAAAAAXNSR0IArs4c6QAAAARnQU1BAACxjwv8YQUAAAAJcEhZcwAADsMAAA7DAcdvqGQAAFszSURBVHhezb0HlG1XdS246+VQr56yECghhDAZJLAswGAMn/DJNgZjY8PHfOB/Y7fTGI7tdhr2t3v0d2Nst4kmmGiyMZhkgpCQBMpCCeWcX6p6ld57t9dca89z5l21z60S/qNHz6pzVppr7X3O2bVPuKGmRoZiqKLD1NRU1QKIw9fitWItG6BP7VwjS0D1jLXEIAmtCbTaaOkqAcaJFk9lC6wFZG5LXy2uOqSCcYLxVp76CI0phyC3G1RDYIEMLawNqA/I+dluoVWTUF8rDtAPMMaaxFpsAL4cG4LymE9kv9qt2pPa1BrkKZ9xQH3kZaif/P8Ipg4dOtS1kgtqRzQ2qQNDOS0ol8jtTIortD3VgRzLYButHJVEy89c+rMO5ByA9lCOgnnKJR5MjnJpqwSUDyiHaMVc2qrv2X8ALPofgXYlbwT1zCEmtc+coTihbagkhtoY8rfwYLgt/LB9erB9BNbCb9VdxwKQXAjVVwML5/xco+UD4EMNLkCrJsEYwNwM5k2KAdC1BuRqNQHVCfoguShaNVeD1lQJrNZHQnk5nm1w/yP9XKfJuVC2W52lT2PUtXPwqZ/IebTVD0zqy1A9+LUmQZtS+0iZ2wPgyzXJpQ3QpzVyfBJynPVZU+u20OIMtcm6BOy8EC0bufRRHzv9rQjWxtQPTIpltGq2cugDsv/B2AB9rVgLa6kBSaiteUN1AK0FUM85ylfQTzCXuiLXbIGcFrdVlz4F4znWvKaC68F0iqC9FglAB2grlE/kfKBVI/taNagDQzXUVrRiQ/wfhpvlEHK8ZQOTOAB5RKtNzcs6oDkrBhUTsnww0Bwt3/IBWr8Va9VoQdv9YZDboU09S0WLT7RsQnNaeDBxbQOgj7nUWznKXS0HyFzNaQ4qgARAExTKJSdzc71sE0M8osXPPmAoT+tPakvjAO1Dpl+y51A5dn0px++wVUXmZiDOGj9sHGhxNDaEnE9dkeu20OIM1VuHFYNKgt6ydWFsCOQAzAE/16efoB+Y5Nd8StbXPEB9qjN3Uhz6ZUulfGTXqLzjkoVyzxyG2DjAAZf1FKzRirGdnK9c5SiyDbTyFUPtKF/jGYwxznoKf6TAAKSStAOM6QKQC5CXkflaL+doPUBt8gHmrWZT55JtcJiX4wBi1yyNyrv2lLLPxtL1uw+Uv71wf5kzn4K1qCtYH9AYdPVrX9RHewgaZx+Yx5rZB+Q40Gor+zSHNSDJG5uphqBJLS59uTihcXYGoJ85Gs9SOZqnmGRrbYK1lJdr7Dk0Ku/bW8qdB8NG+JoHDpaPX71Q5pf7A6T9ynUhtW2N5Xxy6SdPJRdgiItFa9JPH6B59NOXoXFI5UJX+KBCMBO0CG0uWoQ+xWo20KoNH2u32iBHbcYpsWht1YFsM4egjQUz07v2TJWrl1Gz5+CFrS9cv1Q+f91iOWAG85mnOhduz5CfgI8gh7rKjNZ2UapOHnX1AxonGM8+lQB5PqgAGCwMZH0orv4sCXK4ANoZ9SvIaeUpn3rLxw0d4qsfoL1gA+pTc6Wct+Cm1RnnAZ+zQfW1m+xiy8BazM9St5dAjP0bwqQYkOvnmpCqU7Z0QOsoh1K5AGzksE3IblAxwIU+Si5aBEuO06bMS8YQBzJvQAvkt6C1COjqx8Jtog/21+ZH5cv7SznQ9aGvQc/CAbt4v3KxXHaPKYaheoD6iBYXtgI++hlTH6SCfkDj1Cct5AHqyxxI8gDVgeY1VbYJ+iGps6EhKBeSnaOPUF6Osw1ysGi71JkHqXGtRZCrtei7eHHKr6P2I03qEO5BTfuds+uqd18yX67fFRddbCtL1lbAHupnK19raK7mAfSTz1wANpeMzFMwh3GVWJQ/9tofEwESaUMqlzrjRPbnnJYfgK1xgDYW8nOe1tNcgrlDcfq5XGPXT+/bZzMUYjI7ZYyQZ2Hk3Dl3qLznsoVy52y9mjfk9rKOJXNgExojH6C/xVV+i6egX/MA2q081iSoZ193+gOQxEVt6pTUAepaWAE/OIxnvuYplzxI1ZWTQa7GaNOnugK8+w9NlQ/agLr1AOK1TV+PA/nwxxKM62ymeqfNWAelNPszpA/1Q/uoeUS2gczLtVv14Mt5tHM+OUMxLsDYoCKGOgTkGJEbo539AG2NZy59hHKALAnNAbINfqvGrF2Y/83uUbnKrrtrD+oCoO2qGpDGuhbpaFfcawPr4vkyb9Octgs9L4D2RaH9Ip8+5hK0VbIucwDWIsjLPpUZ9DOPkgvhg4qN5yRC49SBXIzIdSA1D8g1W3HlALChcwFUV9CndbSe5i0cGpVPzY7KFXVAWYavsTjHfiMzYD2utSK/2J1h1cq3b1suX7pxsZuxkK/tU89gXyjBow6oH8g8+lv1cy4wiQ9f9msbk9qDPfFCHVJ1gn4UwMJYbkBzdVEwvxUD4NN22Ea2FepjzcyjjfiX7C7vi/utXnhkMYAGrqRTRWnotQnHkl1WffLqxXL2rcvlUA2wn9oX6gB18gjotCm1RobW0QVcjWVkn9rUWYO2cnLfxmYqJkLqoj7yqAOqA8qj5EKbNWlrHECcnKwTapNDnTLnEM63IfHthanyz7OlzPtb9dF+LP6w01zWK9Bd7wC91gYoAagLdk323svmxx415D4wh30E1KcYr99zyIOPOutxIVQHMp8SGMrTuPq1Tej+2h8WQskAEzKPOv15IXI92qwJDPFzrmJSDm31r+RPlRuWS3n/3lLmuqflysGqeiwXP8QID0JrbXpZgQ48w/rA5Qvl+t3jd4QtaN8A8lr7B8g2gBwuiJMzZAOUAPyE+jNXeURuY2ymaoExylwcsrWQ1wI7AB5AqTktH8D6BHStNQTyWO8OO9bvsAF1Xz3mnm+Dq2/NNNSFarGxNvshJFqFOci9dd/B8g67cN+Fx/OC1bapFW/5CN0ugPXoo00M6QRzc02APo1TkrPiOdVaMam4QuMA9Lwhk+K5f1xoE8yjr6Wz1j471b1jz6hcv4x4rQXZNQXLDPtFni+IE163LsgxwbYA5d6851B5zyXzZW/jXQ1A3j4g95d6K559tBmnPgk5j0A+ayi0NpD17pFCq+GWL0MbphzKY2dUZmgNxuGjH8g2AJt1M7S9BZuNPrRvqnx/yWwbEe53LQCrl4ijtmvud7jaZ+DuT9vtuVHlgjsPlE/YxTuutdxrXPYH0O1UHaANrMVHO9fSnAzEM4d1gKFcchin7AYVCwMMtmz6hgCu8rJOkEcJ0CYyH1AfofmA1lDgTPdFu9P7yv6R6eDYAq5fU7Gu9aFqiMe7E2wZK9lzx2UbSP3qTUvlM9cuhqNC+z3UZ8TII1r2EA91sQzlAJP2bQbzmNPK7R4pKEkbo5/IvhzX4plHW+sTjDPWqpP7BZu6LuRoLdzef2O+lE/P4q3BtmMi4r9Yapb/ICo9iyUSAmayHcIzK5U2JX7wFhm8VeZbty6Vg36nGdA67HP2cVFbeZQA41y4DwD6sg5MsnNbWFr9pK9756cGqK+GzKENyVqq53ZoTwK4QObSZp1sK1DjOrvTw2lvFhfj6FM3Sozva/STFoFaIdkPAJq3YYr7PQ9OLMGLOqKbumhT5T9dsVB+sMvmSfRBamqfqWucaG1b9tFWqbyhuowDqud+MpZzANh+oZ4baXUUyLxWQZUE22B+jrM9+nM7xKR8QP3Q4cdys93ev233VNmNmzBwhYfhFYj2YePHLPP1UTcrkB5tcj9BdyfCDvYp/MEAHpg/VN7+vf3do4ahbQEQ0zi3h74cBzQGMIdoxbUGdOUrWn7NZ7ybqbgAKif5qaMGF2IoRzkA4wT7Qx7j9BO5LdjqC8SLxHgbCx4hhMv64bTK9Wum0L2N+hMw6XEDpaHrC/tTZfRvXHdLLuQh77FrundevLDijhAx8jIYG4oPYVLeJH+WLR7Q4ozd/eUDo7b6icwnsr/FIRBjZ5SnG6EdVmR+5izbYPnIvlIutzs9Y9fF4KMquHhHZ0RqP8yoLEdXUkuznIvIDs1+uj5V236YoLvhRpup3n3JQtm3NP4MS8FarW1X6H5QfQiol3mwdaGPGNJb6E5/7DglE7N/tThr0SYyX6ExLLC5EKoDrNPiAotmfnp2qnzdLs7jsFldl4C1Uy2sYdVqvlamVXapve7GpLXpmWaT5Tz0B7rNbuNxyKpZkfPvWC4fvXKxLNZHDYBuT97GjEn+FuiHzLW579UPnTnqVzCfCzD2RJ3yhwXytYZ2oOWHzDmA+tjZzCHI1Tju9L6+v5TPz1l+9UEzFlVD6PQh6k/U3aw8oJ72dFussahhMvxhM6t6wo04DAiTHQdtmfzGLUvlC9fHByiIvD3Z1r60uMRYnwXkIK75ua5KQvkK9XenP6BVFFA/9aHiihzXXOiT2sjt0F6LxOnuo7Mjf49UD7RldakaIiNy3GWrqVpHor62XrjsUE3fBvzKtijCr9saNgSaWrSbiI9cuVC+e6edrGUbFOr3vtZalMpXPfcp82Erv4UczzZq5LpjgwpAgAsbbTVOm3HqhOqMK09rZjnEBzSPUPumA1PlXXtGZY8NqDqEDJBYODTCjwHkXnN2zNoO0fVB3J6FX2/XleqFxE6GWWMAKBAiwxc/B62v77pk3gbWAW+vtY0ZjENm/tA+yr4haD50oJWba5I79qVncOoCqCRHQb8Wz7raQK4FyQXQWNYJ5VPee3Dkbwe+3e/0GEdOxIGxrozFx/torXp7fZt9HNdKzIvTGGxrD1JuArrPCnbtQFhNt2yNXxejsmthVP7pivly6954hoW+s23dTuoEecpvgXmt2rkdQPkAbfVD1xxyuxeUIeHURUGbkvwWtCHoaufauS4wqTagcdZetAP47j1T5WJcodtBxYHCD3TA2W72ccAHAmQdAOwpZPSdNiOGCNoKNWJIeWtekgl9rvfVf8kJH35Cj9UtNqDe/r25cv88eCsHiudUm9udQT+l5gCsqfn0KdTOuubTVoyd/kjUBpkAHxci67RzI2qT05LawRyHnzpAPoB3lnxstpSL8NKaueDFIMAPAd2qi48yanBSCeiOsoCrtAPehvUh+lTrYsAKTbfH1zUcLvSn3wbGr30A73PfX/bVZ1i6zUMgR7ms2/dxci3E+m0eh+axXq4Pm7wVz6moZzkprqCPDWHRTgBsnCAPUK5KzVE+xLfs1IEXipdhGC9fbBvbZQeLy26K+uB0eexjzbfB0p3KKsas2jcMrOBicZdXcN0W9qPrP2SEajxi37OL9g/aqRB3sR3XgD7lfacgD2jxNK51W2A+pHJzDm3l+aDSgBbLSwZ8zNUaAG0AestP5PrU1aftqP8cG1Af3jflz6Xgts1yBbIfOqyH/FAgYmE9WxA3LfhODL7J/LH36E/4oPsPfDb4IoIfxILV6Z6nvsgLO+SBQ4fKV25YLJ+4asF0czTAvIyuvsQzt7V/gby/maP+nAuZuSteUAZIBJhAHv0EcwGNqV/BGq2llQM/wFjPmSo3253eB21A4U7PiO7zoxIahkSnR6AfHBF3j9tdPAyDad4n0zyljwB9PywItc5ktiVRCsLzIGP7XK9LH695MKrPWvU7wk9cPV/OuW3JvxAkA+1jYV2g71NA4zlGaN8I2MqnTR/5lIwxvuKaSok5SW0AdstHMC/zaRPZbkHbAu63Pf0Pe0q5xz8LZYuV8GijlGVWLRA2fdRt+6B5GxHjGc/50jb0MLFPYAeHFHdVQ/sc7cIXHNfxU+3O5/ao7F8elfdeMleuuDc+QKH7QPUHC+Rhnw/l83isdlw0rv3qBhUbIVF1hcYB5aiujRCI55rZBl8XxjUXX1vwDrvTu2bZI8YLiWis4QjLUeMBMKgDwbPW4lpM+tPdEcIn/tii2kfatnKdPqNrHKW5wOM/iMMHF7weZyz899md4F99Z1+5ZU88wwpe7BcusOknyCWHOiVr0M5o1SRafIA1V33rSy6AWKshgHlcCOUzn3HaQ1AugG9hwZ3eJXanl3pdlwAODH1MZzPaHnnWY9tY/I7HIt6DlmdFqkvnVR2r8CXdzbDdXxM8Hs4a89/QTcMHJ/72e3P+XQ263yh1/wDRxspFYzkHyFwAPCwa04XQej5TMQmAVIIWoF8l8wD6ySeUB71l06d2Bl53/Yrd5X3VljghBIJr+RgVFVahakDooFnPXIbPCvIcVxE1qq/WBZBXFWouXfftRfsRYdz9VPFTDdetLmy4Yn+FDriELctldy+Vf7RT4dzSId9e3T+6L7NUnfuXyDahecDQcckcYuzuDwCRtvoBFs/IxWFrHWAoL3Ng06d1cHt9nt/p4b3miFs73WEATK95VXTSYx0X/cACG/XDh8NMjVwyAZ4KfUBYOGpHXyODMmK9v+rw4Yc6VjWORoJXZf0JDX6sp8q37aL9nRfPlWX5FhDuV9ajnf2Axrr2G3EF4pNqtXzdTDUk86JFAPgUyskxADEsjFFqTvaZt1y7POXvjcLbgWH3C3mWV+1x2S+gRST4oUV/4uhhqf6ubWd4KKwqLU6Ki2qHL/iuwwcXVJ/Nqo6F8eqMmnD4ry3jOt7b/pUbFsrnr8OjBngDus8y8v7kdtGf8ybZ1DMHUN/YhTqgDVPXRQurX8EYdYA82hlaD6AE7rS/zH/YMyp3dOc8i0m8a8OF1eAzpdRU33QfABX5XkPiUTPqmOW53qQtXR/9p/qqx70hwiLXRcTCF7m+mK3b6zp+VwzCUVk+VOyOcNafY2WwDhf1AdxO2kDmqgRacUD9gOpjH3vXABA7NkBdOeyk8gjlY1Fei8+6OfaA3en94954JlUnEQN07PDa77ogbC251vdyHPQzkzVRy+v4gGTlvi+a1zHwGyLkmG0MLNT9B4DEgQ2N2x28ulSWr5Hr/vAA+Fbk9106Wy68Y9EvCwjdd7qv8z7NvElxINtAzlO9e0GZG0dytonMB6i3pOYCk/JyO3hi8Jm5Ui5e8UfphyUOuaVCcoj5zENb2gJgIuY8rG1E4QcIjbatQQLFo5Vvi7eCX8ZM6bYjom6HJzger7zoNfQI9vGq+xq+urhPbFvBvm8/PkAxW26r72oAILHfsNA3BK9Tl0ngMcm8Vh593ekPyAd1CEjOcfpYWGWuyxigcfXjTu+zc1Plizao+JkFHNpexsKDAN0PvI2GzpP6GE/TrT22U8O5P47aRAwyQz+lRX3IqnMBW0qZLwgRj4LwkRMC67odFnAu1BrBeqx/vvIq5ZY9B8v/dd4+H2BA3reK7AeXC6H5Y22arlzalPQR3YU6SRoEaLMAJX1EjqlUXs5RkIubm3PmR+Vzs6NyoO7aAPSwY7eurG8eP0RA7622CadKu7Bheg1b+lDkQHhLPiDDC67LiMDhdcIfvrDBCXisOuDr4m4jRn+twBic8DPmoegk7O/fs1TedsE+f9TQgrdZEflhq1/B/ZmPDZBzyM38bqZiAoMkEyygoI85mZPjGqPOGEDfNXbN8OHZqfrBT4+4H8MFa+x06MxkCVan7N+tAAL6AS6zKtyMPyon+IzEPAPc9oMWHR5CD6DE9kGjpxqd7nE3uhCcIW2NWGw3fQb4PBa+4Li7IvIA/AF+57bF8qEr5sqSGXn7YKMOJGPRXiD6N25nyRpqE62aY6e/IWgCoA0MYSjGjdOOgUv7joNT5W93T/lrevgZ48k6wH6EHgc/BoEfcJcEfcyPGBnht6U6tPveD487IyxT0G+3uXLbfqD6DxBSKFUPHhA+1GRu+NCXsGFU3TnjCx4vfOiyufLPV/bPsHS/KejXeEvP+dlm2wBiXAAfVAjSkcmU2UcwxjiReQB9mUvcbzP4+/eOyl3YMT5jYAE3ZGTHkAHCM953xoD+7SqQoXPg0SYj2uht3y6T6CrL0Gb/fQ3bRc+3vdH7sR3QYSBiSk2POBepGTp5IcfjrppetwVx+/mIzVb/flP9FxUG5vAYASqzD1AdyMeMNiR1QOuNvfVFAZ/GKFs+SCwsqrpCfdRZb9EG1Mf2TZXvLtYdZUeyVq9cWMyvfYPqLuzSupFdG1lGtWCGr+8DV5Rs2ZZQDX2+092g5caYtlI3WZ0QrtqKfQA6H0Q1KH3tAVfpcV/oU2WP7cS/++4+v85yTz0Ovq/qhlAC0LmwH4xrv9YK5naPFBT05ViLC2gHWrm6YcqlDxMTPlL1dbs4DzAXNji9RbB++GzHuDR07UKiPeq1FsyKqIH6FjMV0UjXlgzmtC3o3VCxTTShuw8hrPqDORbnj3NpVb/7Qq+/kqO62PRRt+WB+YPlL8/dU65/wN/C4ej2lRHYJ4A2lnxsAI0rWj5tY+zTNIT61hoH2DGNA9ogdF0Omg/v3vzSftOdRfhRrkgHtSrwoYbHqk1A93i1ogasqNszK8yBaPirhm3pPLUS3JDUaVdl7IVlt6OGe9wOBcL16gu3+anDrKvwRcD1UHtf/XG6BTGg/vaCveXeufE9qtBjoOAxI3Kc8P1uXPKpwz/2aRqVJFCnbMUhyYFOu6VnXGKnu/funSrzNX8MTq9t4KdLh2I1JebSS9jKft0H26nkAQh6tdDBgYV+2k93GYY4eG7LQcOCvlZeFeF3BTsXInLcz5kLcdi+YgwG+a70flvCh1UnJKePQ0YNbEcpF9yxVP7HObv9ZR3vb4UeB+fbosdF45DMbflpE7THXqbRpKy3fNRVErC1LnUg2izlJpuh8Tk9fMWPX9CuQPbBjjrYeSvgfcBO1e2xpUENICZ8X2Hd95U18eOo24E1VC7hi0ohgx8x+sP2xePBHM/HvuoiVY//MQgZC/zQTHd/BL2mOeDDyzffuXWxvOPCvWVevhYyQ30tHZK6HkPlAmr7TIUlDnTf2RY0Rl1zcpx1AW0DmDPxzr3FvzsK3UGf8sByPmSYFcEhc2U82gKQrXGXddYgwMSA6XwuzXY18gn3YbGVL9XjvBpwn8erz93ig4J1Fxcdfevi4Nc4fG7D784ah14zwuG6+0zHQPzElXPlK9fPd9/epzUA1VtgPEuC+1rRPVIgdCBA6kKo3h1A8+nAoV/rAbDtmry82wbUVfhsG2I1Hilh48d9dQmEjwCnjwGIc6EKTtjg4gXj6FvlVLC/tRPRrunM5TZ4SV27O3Q8045rqkDElR21a6mIVT7iwQl/SCzYfxF3n/tVD6UKj8Ufpy3mwJfX/s35e8o3boqPfCl8+2yJnH4BKAlyM5/QvO5lmiwRpJ3R8q+WAyCGj1J9anbKX4apzpC2B/ATwMF0YdCOV6WisuoaGxlWN9S62pB97bGdUf2xJp/oe9TBcuHzErZQ95owbBW+sKMvaDN84Q4JOBu6x+sCE9z647wagxkiFOqs7W3pj/nwHVh/dc6ecsU9S34MeKy8j8jo9tO4PgnKQx3akN0TdRiTGuLCuEK5hPIYxwz8TRtM/h8/9QB6HEMkZITM4l+c7Rz3mIod1Qb6VzWjrNyOkIh17QDOrRZS3IYCoA9Vq3XcBAfCeL7ABxuLr/BbD27ljMd54MPpLi4gVB/gZjUgPKv63O16bE/UZDzq+2IrPGr4P+3C/dY98e0y2B4s7Fu/nyKXdrfdladgvtYButNfTlJfjkNnIeUockOYei+309377U5vP/LgtFXPgE8tQ7+dHehC3NuXHETdNpLvDA85E0pIFLCREnnYDtjQ+lg4g4M6W8062lxHrBuVjRsOlHXrcKseFQCvFOXcG36TJBh8X9Ttdo6broUvwqFzwYo61uBDhFWX+lPJuk+izcqz1VX3LpXf/9oDZc/CoeBpji16zCiBHAOg0w9QAlOHDh0a0aEk1YfARsAjX30EfNctT5W/24Ov+jGeHz0EbPGpgFx0FLnVqrqXrE4MGwB/nfEyDHPhY58rx5ZoS3hdA72vzytlvS2bLbbNzMPNd6S1sdXkJvMtzB8o511+V1my+3S0f/DQunLg4FQ5cGCd/dFYzw5h+6My4AfXZxH66tqFRw0WB40xX2GNLQ0fRNUMsY9WxoXRuwMeD8XuzMoLT91Wfuvph5WZzeuM2287dZVAS29JwHVbdW0DNMdIAwUIzWnF8f9f/np3KVfGqwcC7Aocdu1CWLX1TiOYERqi4Ncq5tCmtfp4PeZCnSobbeDMWOJR5thhy4wtWxB3AjPsjnX/cjnvirvK8gEMqgh4zPRDNqAO2HLwoA20A1PGwQGzoDF8/xgx7KgVK4je6eOPZs1xf7jC5+hr9vHY2jC6ql1OnCJd89ibzpgpbzx9pmxcT38P5vA4ws7HVME4ZTdT5UJELriaTdAf//GzlO8txt0Rmd5ezet89uMDpsacY0Ac+yQmptp5j1S/a9UjdYG6qyumygZb43S23Zw7bTmqDiiraguY6De4QJ8J/+x+m6lsUC3ZoApmYkR3OxywAbbsAwyDzQadLd4b4/WHPeogOTxRWWuFHg66x+J1NVazU1OtKjfahc9/f+rO8ron7bDt7bei2+fiU/C4Uiro62YqJQNMaNlDxRTw4TujPj03Kp+YxYCq+bZg1/aG+Y0bg6NVFxr9kU3kOHYqNKzRBi4YN5i20eROGzyHrZsqh5m+xUg4xa3v+lz7U7MD0UusQ07ZoIqZCqc/nnrRB88zm4PSbeSZiv0Cecj+og7aTIYZbMkGGWYz3Lj44yPbeAgQXVa4hR0TGoQjBHwW0xzQ3WJOxGvI9bAivmPTuvK//8QR5bmnbPXToh7H2K6ViO0Z59EHQB87/WmgRQayTZCv+FcbUP+0b6os1ByZbmBUCZgeo6pDzTAELzKsDfvRzAA9MZCmTT/cLqp3mo5ZaNpCG2pC7ie6Nt7tvlZGnqnAcZbXGCsSkYafQLucxZZtBluya84DdpngpykLYkudV+vUlkyx7UfITbZva2sHgmYXc0Djsayy1njYzPryl//pqPL4Y+3PzPxD/QUivwe4zGEMup/+aAAaXEsjyqNExQsWRuVtezCgKrluWKim140KScOQmrOKLnu37Szjc6bAtQ8uqjFwcCrbae1vNh8Gl/Uo+uV6G769FoxhS9S+eAUiTn/n52sqk9792gqr9HlOq3yQTTgJ+wvSA65Dw+BaXLJBhtnMBhlmN/J8X3S6i5DdGnH1GMzmPvSsGmAc23/qERt9YJ121KbqDT+PKZCP8yRf8/QHSbT8Q1zAXHanNyr/9+4p/y8LsUmJC5LrJtF6V4IK/KbXI+Y1zFxn8fWm424MpzHc4tsVgdl2jVA5UaMW9fRoP9D1xvS0TYzUvkUVFIAZtfbNL3eDyqOIIRnhSHOEHv3GL+KsGAgdPLeQDxmmwy/8bf/hOgwDbMGuSTGjISdOmdFjwPtcEZqt47eD6+rz/B5POHZTeffLji1bbEr3vls8S0D1jI5vK2mnJ+dCGZ7c4Nx5IAbUtf52nrrja4w5GbF7VvqRvMX4mIUOs8GBUxkurrchBjr7ANvX9dCp39uHEtC2+v70OxjjGAnj22cc+8U1FQbVkh3trkZEHX1tbje86Af8RMTd70JybA2wdl8nbHxnVcxkJg+Usmj6sg08JjLf6zpqzRz3FduztStT5UWP2l5+/5lH+KMGYuiYATlG2wcVDQ0o4FO0CgH7bKP/p93pXboYL2bCjcyIhuETUN2czq4kXFTjdLbdHBg8eOCIWQmzE+7a+npVwQoqhAVXbgcYPERxgGD0HjerHLccloAPrYZXT3/4rJ35rZ9e0xjRlhtuS2M1n7JysOGm9/0ODlbuM5V54YNiqjvCP7L9jUkTg2x+ETMaZrYYfMzT9qhXjyl9j6GstxuZN54xU970lJ1l83psUzTK/QqpGPJ111QASbmYQhtQuWjy43ZR/qk5J8VeMBmDiDXQFPSQ60xuNInnQsfYAcKMhFv9eEZkCtuwH2RFLlB3hpeBz+K1dBzsyrDf8fyaEmrooHkN+KNuH0eh6AOwjzMV3qTkiNjYvoDXVthm+sGLqpBe0vz0juc7ak7ebx63mEeZg5i743S57DNYKQs20PbbKfOgX4KAH9JhRu0pzZC2bLPT328+/fDys4/HhUUgtgG8rkLnUzA+NlNBKujLMsfwdmB8kpjfyFI323lY4zU8XNvgafV2WzCIdlgeHjYO3Zn1euwA17QPETIbflvhNxrDyrMiDmIPpJIDgq+dZwryeqPGwA3MzsdMhbs/tg30NZFTnSA4+v1EH5sIib4GIhNW3384UdM5QgxuwLnwmBjvUwwwzGRYFuxaF6dPP2XWrFhVYSt4N9iM9XcvOqY86+F+oSH978H9Qr/up7Frqh8GmOe+MT8q77dZam+ddtEMdgPuJbBg4BxpjR9mp2rMQnhu5HdntZ/RA1vBIRsAf7iqj8VNuiouoOeHHELOCUQb0RZsrCLIQctrqrhQ94gtzAm+aV3tQNdAHzO+z44W0n5GtocNxrWBypnXo/zjgVnhVNTxFdbRCqXDQrBx8Y/3VS3ZoNq/gFNmXJthhsNzNHAqvZw4s6H82XOPKmcej0fFgX47x/WMFRfqSmSo39kr5XX2F/Dnu0rZZZ1CJmaio/wZ0VTZYXKryc3YOXUTUVFasGWlt8d4vN9hxLgdGteRFWDr0Hq9ZzDWo8/vOTqofNcYaYzX+WqfQML+rAJK5IUPCD+o1YFshN2siRTwOd8U91k77uv3Qy1nOn3hhZ+6A6phyW6slmw2w6lyv10Lz9lgQ18QfuzRm8v/85Jjy7HT62tbVhMdMahO0NecqRjMoVzwTptO8Y0sD9hox93ZERbexE4boPGWPjYn1uatWuidz9RoA75A7+uz4Ox5uuOy5mzT2BK0AHkEt8l1W5wfjVdP6S7U44m6u1ZF32Zfp68fivdXton97WHEytWZC47Igx3b7BUsxG3p0G1LC5aJctBM4npsdmHk8tFHbi7/8/nHlCO34VYJ8ehnloru3hFBgqRMJof+zXbufYy19ej1o3Kc6ZvNjxAXgBWwyQ6vgZ2GCH1YIbdn42oXuwg+tOud95/I9r6Aw1xbQ5cKfV2oVXdBVhikOaKdCmvb/urMNs8YN/rT+Ux3s0r6EPe+hssROvodrXgcTjTh+eyv6ZQer32wtgORH3kmfQVYvu9H5CM3FtYHz6m+AsL2HPtdZ8dx22a7cbJrlZOOWVeO2bmuLNkps6uTwGOm8W6mgugPaqDlA9SPa6oL50u5Av+s0XQrXTcX677DaISVghNx9VKPHFcdiDjgh/BVrVF5nm2r8ZkRtL6veXuiHe2jxVHcDxxzQoWFuz+8THOgu6aq6OnSRnVGcY/1kASH2uxPNYWH2giIxxatQ9DfioevPwbjYP93bFxXXnzKTHnhKTvKNrz6PADvk0H369jLNCt3eiRkkEuge/iC/Iv3l4IveBvvamxELwNhscZ4Rs7xtpySd0McADiDbXGmwq7bE7LGI2CDL0iV2rXR2tEADgJf+8Og6tp12TcadbqqqV7Pcz0NYPjiYrzPY5R1ySTcH4zYxmqGJ2S0I7YAPqyjst1crVtXnnjU1vKGJxxejtxq11Lm1TFBxD7txwwlMDZTES1yjgOZg0cLV9iF3pV2Nzhndxrsiuda3G1T/a8ENVCSJAP8dGAdeW6asHaQR4dzsXam6xBd32B4uuX5Qeq5WquTvg2eInYvAc5UePgJhDdyOkSBQEypY3X6etYyE7WQ6R5lnY5jhvTFA1Yf26acSOkcNadSbOV9sB9uu6P6H7ptY3nZqTPl6cdvW/HwczV43do/H1QwGFDA3yrMAlkHYM/brHWBzVo/sIu98YoAPLE5faz6zMkuRGa/xi4Ar8/r2wwgFkwi22jA89mIg3UiH78RxsrZLjGDzM7z9IdBFdsN7vjsEm3EqtbyMlDAhW4r+2U7nQ9wf96WWhOwtvyU7XrUiP0WDcGPPOZHHnWzlOvBqbLRrqOe8dDt5Rcfd5i/HWZ8/6B+VAG8b2aTk2Muzdl5lQCwAF7pwr89O8Euyh+yHv7gthpnDt4ccpvdHX7PBteuA9w8xCLf2G736G3XnAirzQH6PsAPgVaSbywfGK+htmt9Bw2m+4AJfZ+c/tyD9qF07fXbV63qQ59MdfTckID6AA4OIuK1NVv3+fD1vMD4fqn7xCNEVMCV0qk7N5dffOzh5dTDN5UN5tBj2tcJwN67XMq371wqC3ZaeslJm8um9M5Rz7EV6rsBaBEA7vPslIbP6W23Rl8zXcoZW0rZZDQvYHzK4Pd1oOP1wEvmp8oNNmvhEzSxOc4wMoRtsslI96IusApmrMd3HXdTK4YSfb+A6Bv0njceSznm6v4M6grt8U16eE5Vo7Y2iRTLqSWTHpzoYzh97TnjbTPOut4Hj/U5MDzLGzCt7j+A/ad0rkukYlXbMdeMzUj/6aQd5fkPny5HbN0Q/ISujgHrG2cPlfddPl8uun2xbLQyb/2xHeUnH4YX2nogZ+ztxFmiNz+w2eZ/7CrlARsc2Bw8DX+KDapf3DEqx+J1lwrkAMwn2KmbbYRfuH/KZi1sntWPzfTOBtvWneGHytSeR5b7rWZMIIiHF3qgrxi5rFF90j90zTWmAjWdVTwXM6AdvNm5mKmWD2LuBlJt+8FvV99XaM9Fc7+09lvkIRa6ZHkdINeCzb54P5DlfnIiB+Zjj9hSXve4w8vDD9vkuYTXSDYwa8fsSzfh2/r2l7n9uEmJFma2rSu//bSZ8tRjNozl+kxFI+OmA6W8bTc+mo4O+iZ5p9DW0TagXrq9lJ/YihksGgdYq9XBWbvRxKx1PWYtu5D3Yl4VHak7BXmwEbF8VuYgcr3z15xQA10ycmoG+lF9Hc8RRlfDYVrlBx0RaHahLoOqR/DRbwCpDk+rFZxSA+73VZ+D+vYb284Cnmnr6B213u8psUYuVK6srdpEtz+xOm77Bn9M8Izjt5ftNtV4rPar73/0CxIn+ev2HCzvsdnpyjsW/el7sIMH/YjpDeWvn7uzPMxOY8xbMVNFAv7JdfGPVF22iA7WjfKK2ESsiz/sfPzmUt4wYx2u11otaG3g5qVSLp4v5X6bBVFtIM3ziD4fvtCjLrTehu4+U91iWkWleDBi4YCfXPYqmo++Q52dqxfqeG+Je2wdonKQF6juUFDYpNfvGvKAmbDxSx/W3CdhA5EW/Yg1QM0y4q/Odf+tNZGHy54ffcj28rM/srMcP7PR2+T+VJ2Az/5+ymdvXCz/evV8uW/WBoP50Jav49drQ3vUcZvL/2Ez1kNs5gK6ayqA6n4Tf7Mb32rHZDYchbGC6XRT8M7LV9is9cLto7KjMWsBvkO6OnhQahfxNrCuWZjyJ7bYBYpoiTuXCB/ZcRBjx4Wj1jfbXa4GR7UarRIQbw2xrz1TTn+4UDfiyrZNwlfXYHjVjmMZzgH6ONddSID6eTtqMYTruq/AqGdYe6fMbCqvefRh5fSHbO22icg2sGzH4vy7D5R3XzZX7rjfRpbX8bWtYqviN1rCcUT8R0/eUn7/rB3lMNw9WmHACwJ4T/lH95XyL3b9g2PtTdaLQd/JpvjGce8DpuLtK4+0C6437ByVk83AG+vYYc9JnSfusX5fYoPr1jqAUbb7o6tdB6I5HipE3VHtQHAtGp2tseAG2zQPIVZt0eKg9PXg76Olm6n4dmJEsFmoGbZ5ZDvDwz5AC0+IyAX6/R8tcT+HmXjeYAj6vE2UgKilpjeuK885cUd50SOmy+Fb1neflgG6+gm3zx0qH/vBQjnHZqjZBbwRMfzgkp19sKGvt0nqBY/eXv6306ex/x3eEL7V7lOzpXxi1mYPS0FS9D3W4AHjOy52mtewnxk7Db7YZqwXb5sqW/DXXLlsQ0Ef5MV2rYUHp9373wxdbfvp9pgJVoloD/a37zfRe1hrPK6IeNe3cBr6mcqfqNeGsEnsp7PoY6LpEQn08X7bAd033sean/2+PzwHhcf3AGv/yOFbyk8/cqY82WYngu1RV2DyOO/eA/5fUG974IDHQXEWdJdhh7/Gsao+2yOu//rTd/aDCjfJ+F9679838n/J771zoklkeX/EB4lfU/sNQyxsPNN6885STrPZC7OW+3UH1Q4BsXNx2h2Vc+fsmosv9YBSU0INI3ZuG5KSwELGaBJqbYuzm6zlKebcx5nKrqlYAjEwY9tqz5xfD4ZB94+/YOzTLkA/M1nDhdesFWsfEOhzHBbgAD9228bynBOmy8tPm7GZqeb79kSO7nPiVpudPnTlfDnbZie+T4zto22mIBeq26JD86sXt0dlwwY7/fFC/ft2Qf6Xu6bKXgv4xiERnYFdOwV4vvugsLOxwdwANIQah9uU+Oyto/KS7VNl57pUB0mG7FuyPXS9XcjjBeq9dn3oUW8ASnDZHoFKPOVpcKyNsSTPCLXCuTWOLeBaMX6h3mOcjRq2B+KvzS0iGNg3QPCA2FuBqGXSlP7Fbg+5HkEMTHd5v/F63ZOO3lJe9SOHlRPtQhzvNW/tX8Ws3SR9686l8vHL95c7bUfzXeXIc81W4ak+t6tUnXGXoXcvKOPxwT/utYO5FIPCAWF9Atk32/uHTPij49FnrCoZ6FQopZxks9br7Q7xiZuQVjmGyA9bdQD/buUcm7VuxYcozI6Bbr8mwGIf+7ueCufEYQIn8kxzWhx6zzcFzY31AXzPH2PC4TG+oByPFCInaoGLesFHq24jF2tvDL/Q4ar9qoh0cMzXi07v4V5DVIZ99JaN5RWnzpRnnzS94ul2BvqBvCt2HSwfttnp0tuX5NUBVKtVo5Md32Od3vug4LTnepVTeCpvpHDZGl9s91WbIT5nBzP+i3pFd+Cqb+xAmi8f2AqU5o7Gp2J+bEspP7sj3hmaP2atoB//L/n25alyvvVnj/UnbljHkQ6PLdFeaOMRIKJAn6n9XLkhqBXM7vR3oP9fxpESeVEH9Yyv4VANlddVFM1CPlSQ76zxAsEMgLvVTjNPP257+dnHHFZ2bl7n+1PBbYIk7rc/0H+5abF81gbU/noh7lFTIElFDmPM510e4HH3udX5jzt8Y3nDGTtWvvUF4/bWA1PlA3ZtdfmiHVgEwdA+u43CvrXu6HaSiW6HIOi/7vRPz5xos9arp0s5fQve1FdZ1m53kAT077YB9f2FKX+B+gAOWO1P9MCV2m4NAHXDo2yNSFiSqm4ic6FVH9TxdylYy4hhj0bYgf5Ey6GPgVyETXZcuLH/7Se2xx01pd830PH9D6fs3Fx+yi7E8ZgAH1LIAA9gHv7NyDV7DpZ3XbK/XHMPZqeIg+eararHm9bBAtV5rlepusU3bbQJ4+St5ZeeMG03CRts3wVQJTbMdMgFq/zvNmvhqxTx7z0yNIeIXGi2Mp3HrLs4RYo5bFyVp9qgev0Om779oWm0S2g/KIHb7Trgu/utPyZrZfcbw2WsAWxyHDL1dh3ooLbWbHP2zS3ZoLrbrqn6099KPrCWutkDSxE5wQl96/r15QV2mnvFo3baTIV92u+3vK+IPXb6+fR1C+XTV+232QkHEoMBe8by4rerAQG/S9UrJ2TozrflqJkN5dfP2ll+4vjNdm1X+2ArwEm5Y5jybrdZ6yOzpVxot/v+mMGoEY9G+kNn6+4vH4iatbTlhOwPNt7xMFV+enpUzrLTIr4PobVjtG8A9sul86NyLT482R1b9CV2PdvtO9LbzuIOrdvAAxZ8ciMCsK9AnP4wqPxKomOAHRVqG520SP2D6vdbsNmuV3cOuCBFHXc7DzP8lF2Ib7UL8Z3l5J14N0HEAe6vLPfbbHTNrgPl7RfNlTt3LfsnZlC+tuh6yOgbTNfHJFZx3RS/lWvL9i3ryrMesbX8F5udTpruXwRG2901FQA1dxDAd76ea6efj8+O/OUbHzxoxTgu604IHYLxqrsMO9hwhG+j1XjqlpHNWqUciTeG1RqtfqjvVrtDvGD/qOy287OXNp+jcmMtfvN4yOzwmMF+As5zgkvWxI50j9nxYdIYVMxjhqKvAlm3yApEPeWjuosuFg1DWqbJnRvXl5c8Yqa86BE7/K0pALeJ+0IB3912mfBPV82Xb9+4UObwVYyoHL9enrzO7vTeBw0ynwqBY+3a6bfOnClnPRSz03h/gBWDCvANNJ2Svrts9OM/rl+wiBnDCtlvxwMH3NrASliMA8zhGZYfrp3rR+VV01PlmXiB2v6yc9tAq394v9Y1NovO+9YbD/UwM5ju10UyS1RGB9hY88Aj5m0Yl54+Z1T22kyFQcW7P60FsE+K6Alb6Tl9XQCssONRBD7mP1WefcJ0eaWd6o7aFm9NYW3vo4B+fAn/129fLu+5dLbsna3/Bjd+ewnV/BGqUnWPY4GnyurfuX19eeljtpefe/R2u+uMr3YEfHuqDjRnqhYYw+nnAjuI/zyHU2M0VneH/cYOQUVvqEYI1vDuVo6TwbI8fLzr8ZtH5eds1sLDU8xiBLvJ/km3y/12jM+fmyp3L3tZQ11XSuTAyFJR69pPaAC3IbgcVN1M5b82WDwhmL0EVAdgEwMcMx8+s6m86JQd5ayHbSub6/SUtx+gD+ub9h0q77e7uotuWygLeBOAxSIKHmX4YPc6uCYbcQByg12//chDNpe3PnWmPP6Ije035slx6QZVFQ4QlEjQB+rddiA/YafDb9rFfHx9NfLH+R081NfvqZJnReP5UPFPMr9sO17uiafxYx0WHWBf8Q6nq2xnXmoX8ot11sIuCjZboQ/eyKef2ngcdgBaN1PpIwWD98VMrw+1C8VB4qmMCL6za9wWi3N2+hm7djpiS3yAcwjcftzIffnW5fKRy2fL3XaHF/X6upCgwhMpIbF010ouxp+M07fRzm+/8OSZ8srTtvrsxP0NUM++sUcKRItIH6DxS5emygf3lnJjnbWUBwcfRBLg1Cq+DpjHAxEl59SNxWatUXnCpv4DirkPBGwAA/wbNthv9f8biB8gDqDX9jw0h9w+Cr33qQda6LhQj5mK3xjR5/S8WIcVa8+2gO8z5dZtQOz0Y+xC3E51eFtv+CKmPAI2HiNetftgeeelc+WaO5diQNiC+qgXPF97DDn0gdMaQCHDh8///ehJW2x22lketTMuxNkv1bVfxIqZKpNbevbhkcNnZu1g2qyF/zljzu7yyVTfiXFmhGEK4haLCs6iYSFjux4bOWNT7U/adRbeWjOzDlko0e4jJZ443Gy30nin6T6bUetYbeeEEb0wO6IG8xkh+mkr9JgX6v6cyut4AIwgOeiP7ejbRLzP8bZMYkZ6/kk7yvNOmfZ3FrB/AHIzEL9r/6HyqesXytdvWCi767WTM6O0K0j1hTq84KnuUnX01W6Ytm8oP/fkHeUlp2wth+F94xW+v5BQwb7Sx/iKayqFbiDgCeJTG0+/8RLPe23WusWOKtwo53GT0e3xHR0ShRCKOkTkVsOAF6bxNP5Jm0AOtPqicp/dTOBC/iZ/W02fh360EX10rdYRl53+luSaaiWQA64MzQStX8oZmJ3sVHfq4fhCSWmz6oBuI95FcpFdQL77ktly4z3LK2YgW7uE6rLG/Gl450M8eK6Jb8pmp7MevrW89YyZ8kibnbTtDPY1S8AHFRwKBtW/WgMAOHg55V/tQOKfQvbfAlPrxHRV9RCWVHVbeRtdwBbV8QVoo/LjW6bKK/2hafjQdt4o7Q92/I02a11kfcIL1IjEQQ8t8pxdfYDE6TPRzVQYVGYz6u07J7hhW126vH4IzMTHT28sL33ETHnmCdu77zHP/c/bctf8qHz82vnyZVsWMRWbH5EadgmPy+qEwIAKPfitUyGaOunITeW/n7mznHXsJn+wuhpYw7c16WOnP24IkO21Anm4aL7CDuQH9k6VW+xay45lF4uG0QH3VN0M9II+V6UvtnSnTsOjbNb6melSnmB3ing6n/vZt9Nvw14b7FcuTJWr7c4VL1sAzrEfttXz2Zm+f/Dgibqe/vzvozbd5UZC9XWql8T3af7E8dPl+Q/fUU6YsY2o0P4C0YfAovX7sgcOlHddNFduvn/ZvwrIWbYKdvQxNil0qKg1pjd8wBa7EH/OadvLLzx2ezl1J/bmSpALsG/wsc/qA8YGlWJoIwH1a14ujn/B9tnZUr5osxbeohyAAp5Jn7nciSQUMK910h0MAEzuffjeKzzT+pnp9ks9gPabsZuXp8pldu1nZw+rBt94O2i985uITwCbbrK7UMeb9Co/2oiDRd0ruw2OeUzHYwJciP/oQ+OLxBToG/vPPkO/02anj161v3z5uoVyoL57EdW5Lf5yi+n0wQ0rZPW5DB3oZi5bjrfZ6b89Zab85AnxEov7a3wIuk8VzEN87PTHDcs6QV+OZT8kAB2z1A/sQOJb9q6x2cuOZQ8rEccLq+BHLmr3NaDGobZ4jQLwnbBh5LPWGZvxXvm+T0TuK7BseVfajHWFHTQ8d4uWAt5c54g28QufPvwkhTcW0Td446Cy3ZlN68sLT7YLcZud8G4CQveRAv7dS4fKN29fLh/7/v5y794D8l4nF54DHSbz9boJij9H91DlYqn69NZ15cWPni6vtdnpWNO5LS2wn0Duawvgrzj9URLZzqjpDuZTB2jvM/GFuanyGbs9xH+CsIgtVdZBFQi++6B3fhxgmr0GHbPWM7batZbNWsfWl3p0W4a24U4b4d+1KfReG/QdvDTrx4GKwSIX6rz7Q5ActONmZOA9248+fEt55Wk7y+OO3txsPwMD44Z9h8p7LttfLrl9sSzb7FSbcIntCBkr6tBU1jFoOjnhQBdOOWZz+ZWnzpQzH7Kp+1rMSX3L+5CS6GuHz+O2AppEQMkK5QOsQd5Q3i0Hpsr77A7x0iWL1Z3gXNC0pNuaqxsU/i63Av/l4eXbS3nB9qmxT1AD2j/1ARfZ6RAz1xJeepKOBJceu/FI11SkBjtMrI7essFfr3v+KdP+8Sjt41A/Zu3a819vXCwf+f5c94FNxtACJFTuM3h7H/RqN+LA9m3ryy88eUf5mdO2lZ34eHGC9gkyI8e175oDvZupFEpg0oPFUA3ouNU/1w7iJ+16C8+4Vm7COBBHdshhNiK4/H2S3aH/7I6p8nC77gR/tf7jLxt3qmfjBXObtTA/+Oxkfp1E8yOFfrtw8Gwg23XJ047bVl72yBn/fF3+BAuh+wMfibpm18Hyzsvmyg/uXvIPbAI1zblQYfd6GjgSB9SH9zo9+fgt5S1nzJTHHL5hxfuvwNVjk/dVKz6J59JW0RODqGsqRGSO1iFa9W60WetDdq11MV6r8sOPtXFwSFHDc2IH9YeWtXHYofd9ivywj14/Ki+2GevF26ImoH0AtM8A3kN2zWIpl9iNxTL89sOaSNm3vx9U3is/RaOOzZJ27fTqRx1WfvLk7SvehdkC2t21PCqfvn6xfN4uxvdhdvKa/uvxkM52icVPiK73cWiMUwe2bFlX/tuZO8uLHh4PMXV7s1wNmdfKo685UykmhVm01QDA3FaMwB8mZq1/ssHlb6sxRJrUhN1d5yjqDsSGhMMwzsNLPK+ya63H8m2mCey7bgM+3Pq1uVLusAHGWjhY+WUaNL59w/ryvJN2lJedtqPssIGl29yqDeAxwbl3LZd3XDJX7tvdfyQKCJlfWkHrEYPm0nWNVb/9rLdz7rMfub284Yk7/CUWbXsS2B6wlhzwW7zumkrBHUEdaNnkDfk0lpHz8MGLT85O+f8FtIkLXluYi10V8wZ8/RroOQHYZEQW3hP/vG1Tdq2Fr98e7pv6Fu0Md5f16Ty7sdh30HwW61+mOeTvbTrtsM3lVTY7Peaozd0nWFgbUJ24DR+JumahnHvjvL/XCQAlaP3ACAl/y1f9NQ64sG4eN7Oh/MLpM+U/n7ylTNdrJ24TuOxT9rXQ4rUkoL5uplJSKwmATTA+CcphHa2Z6+Nxw9nzOCXaqcGuu7DbOAc5z/jwmgKPaMEKPlBzukgA11ov3z4qT7RZS/s2CTYGyoX74wvc+EhhyqaRVz9qZ3n2idNl55b+XY+sqRKAjgeu59x9oLz34tly+y6dnUL6Aqvm5EcEsDB7ueY2YtStPRvUz33U9vKWJ+0oD7eBlcE+rVUn4FMgPskHvfvcH9BqQMmtuOpZaqwFxIiej4v3UfmYnQ6/ZXdli3VYgGmVnYNrmXo5I0Om0RaKuc128KnpUp6/Ld5Wc5SNh5zDPsHHGA7mHXae/uZ9B8quu/aVlz1iRzl+R//1OZQ5D4B+0+yh8sHv7/ePk/tFvlHBRixk6MGPARV6H+99tuDHpcGaOfWYTf7va5/1sM3+mEDbzv0hcmytHIJc+pTXnKkyKfuoA8rJviEdkhjiLdiowTtMP2qz1j12rYW3ejC30gya66rp8BoPpznG7UeHJrTTNo7KK6anyuk2e/EOO/cB6NucKnM2sMDFl/WSRyif2GcX4l+/fal8/Iq5ctcem51iPBliUAzPPA19zAerlO2b15eXPm66vPK0bStmJ3B1W1RX5O0YgublujnWvZ8KyA0zIfsB+ogWT23WAnIuoPkKzBCftYvmL9spyDLdF8Cu5bAJq+7roJneqhek8OMwPM/uDl85bXdva3hhF/patgGzyuW7DpYPXrG/XH47ZqcYDORAh+m6S+qIWRsuwweMzVLgWdOnPWRzectTdpZnPnSTv9cs9w26SkWOqQQyH2jVUWh8bKYitAEi+2jnhoY4ys0cgL4Wx66Xy2WL8fjhRhtkHqrNsnX6+tkp1oyTiQMGDiW8D8X743eU8jQ7N/Kdpq3+tmzy6LvP7jI+e8NC+dxVdiE+j/c6wctBAq3Pz9dN/lDBQ8qnHtzprevLa5+8w2an7eUIuzbUthXsK8C4+gD1aw3yJvmGOLC7uz8lUVfAD7RiBDlAbpQNKjJH0cq/zQbUV23G+qLNXEs+HJjXc33A4NSHEGtA1XWoHvAXjA34ji1/W830yK+1ENY+sz+A+qjj9Hz1noPlHy6cK9feu1QOYvCbH3Fn2KofIKKP+SDhSdIUvOxz2rE2Oz11Z3nGcfrPWvq+sS8PxqZOkEPkXAA+rZVj3Uy1VoCeO5KROWvNAYbyVP+OXcDjX8FdswS+uxwdB6W6kdOj3Q/ljWzWmiovt9Phc7cGN+fABjR2z/yh8qkfLJTPX7O/zC/afGOUoNUBA82UTq7wrdRt7TouTqa3rbfBNFNe8cht/v/4cn/UzmjFs281W8HYpLrNu7+1FCXUbuXBBygHaNXI+WqP6/Ffu/DVR3hDIL4B2by29LmDGKPhwOEgjbs3mXWWTV0v3T4qp8jrZLnv+OaU8+5eLh+4LD6wGa/e1EGDBZYpnVSf6EDYzI0cvNfpzJO3ltc/Ybo84cj+ZZ+8jwD4VCeUn3OBIR8wVBNgXuZCrrimGkqmDgxxlAuQD+QcQPOIoTqtfACfnP74LN5eE9cotkl+cCAtEwVddCMGMB7fIw7/WNgMXAjDftiGUfnP26bKc+1iPr7Yue/vbfsPlfddMV/Ov2WhzNcPbJrba0FCc9uW7qUV8TX1KoHDd2wov3zmzvK8k7aU6TQ7Zeh+XG2//TAcYsgPIAYgPnZNBckAoHbWJ0mF+qATLR/Qqpfzcg6ur/BmQHxbDd4YyB44z/iWYRa8mlfbtx9GggnbPDUX9pl2QfwKu9b6kU3xcfKv3rZU3nvJbNnnHzqo7RhwqqIOyQkUHtjOpS4+wC/aTcdn7F7y2OnyC4+fLqfYwFKwNqH7kDrR4pLH2JBOrJZDwAeQOzZTDRUBcjyjlZe5jAE5rvmak5FrAPDhZUP8h/mP2x0iPoBxwA+bcTBAKsbas5+xGGykdHHkRg60I+zi/Sc2HipXXT1XLr11oSwscUCERH7IyBnTXaqOtfhgWmMn2ynuDWfsLM89cUvBg/q8b/6/xH+kzW6mcsOKQM/F1Jf1jKFc5eZaWQ7FAI23MGfnri/adRa+uxTfAWGZNQKEVSt0muorNchYH9y9XPZfsqeM/LHG+MABfKaCB79VH37AWSWc1syLHzdd3viEHeXk+hATvKHt1v2iPmIoR/Uhn0J9LZ35RBc3xTU6iNwIC3SJUlB9QzqxWk2NA0M+INeCHbKUGzBr2bkQT+XNaz84jMYLti29BUQ0wBkMvmCG58DupTJ38Z5yCO9RdzrfTVDzRYcce2hZffCgn9DxrXP4OPmvnnlYOfPYuBAPfn/AuI20CeUAQzxiUh1gLf7cJkAewNiKLz1jgLoWbxUgWrkPVock1CZPofmE1oGctYuaz9t1Fp5t3Y8HSRgaNWVlfo27ajpiLuGwmvaDmWrfRbttpqqPDZy6crB0+pgvArG348suXvOkHeXFp2wrx9ev4tE+QQfUbunAg4kBQ9xJGKrLmgDjKwbVJJ1gMsDiCvW14kCrPnWVGcptgXECvGuX4nR4vr8/CgDH2nAJrVUrOIHQl22m2nfh7jpT9QMIq/7puHvGT3sp9sQTt5Y327XTWTY75e0AR7efOeojVrMJ9VOHJHJsLXqWGmteqAM5UX3UAeWsFgeG8lbzEbCB7FOb6OvFSz1fqK8h3uFvBkSdVo2oz5j6l22m2vO9Xf3pzxYMl/EBFL4xWeOHT28or7PB9IpTt5aZ9F4noO/v+PZkW/FguUTOAVp5rXqT6sBuXlORSJKi5QOYj5jWApSfecqfpAPkDyHHabOOWeUWu8jGx8UuxTfxCQfRlajteqbNVLuWyu7vPdANKl8QN6WT7usHE3T8k8Yn2+z0ptNnylOO6Wen3D/VhzDEoZ+1iUm11ZfjWi/nKVq8blABOZiBWAZzFMxv8QnN03azL+stIK5YLQ+XV1+bL+XTdkq8q76F2di2WB/sZ+x0iNpeY1SWdi2XXd/VQQV2UBCnT2euI3duLP/1jHiJZUt9J8RaoH2n3vIp4APUP5QzlL+WeI7BBuibeKEOaDKQCwKTfGutSQxxh2wAPtgqCc1THVv9gK0+vG+qfGdhVObxcg0Ggg+pkM71NYBBtVQeuOCBcpCfFrYaYLq0Faq7NGXzpnX+TszXP37aP07e1xnfhtxXjQHsd84Z8gE53kKuMyQV2QcbIJ/6itf+AJK0ANAqmrlaQ9HiEtmX66kOaJ0siZw3FFuykniB+mM2a93JO0TDWD6Giw265d2L5b7z77eZCgOnDqZuUAUTwPeJv/lHDyvPP3HLmr7sYgi53/9/BPuofV1x+gOUpGShroByhvIJjQGZp35ikk8xVIP1h3L22GkQn+g522at+OBF3w6APMxUGFQxU8kzqlpzw8Z15ZVP3FF+8bHT5WHb45M12t+1QHOG8rOfdpaMAfRTJ+gDsn/I1hxgBc9WzmASpfoU2bcWzoMF8olWbWIoBn/WW9zsw6z1vYV4/HA9bhd95qkcUxd3LZZ7z7+vHFzic6qYpVDm0cdtLq990kx5zgl4iWXlAaQNqK/VP83N+lAueUDLzzxAfTk+lJdz6AcYA+BfcfeXyblIiwcolxjKUTvntXyK7IcNZF/OVR7j9AHKxyd58B8vzp2PO8SaWRYfWCp3f+dem6kwmDCkin/G7tVPnvHZ6bj6nzkVQ33RfmTk/mVuK39SHBJYS46i5Wsh11nTw08gx+gn1hJv1QLWwm/FAfgZzzmA5g3l0KeAH99n+v69+Exi8Bbt9HfXuRhUh/w7MZ9ss9KvnXlYecKR4+8mGGoTaLVL3xBacfVpzexTHRLIXOLB5NAPaB3n2MqjJLWKZh8xFGvlEvABa60DtGzqwCRbc6kDtCfVMYbfIeLRw7cXpso99y6WO22mOmrruvIzT5zxh5jHbO2vnZjb0rNPwXjGEB9gDBiKs03Gs65QrvII8lt+5gDQfVCpA8j2EFp5QzmMtThDedmvNYAcA9bqI9bCh/dyOw/+/c1LZf3tc+WNj5suTz4qvgkPXHCYo/XVRx6wGpdgTo61/NSBIR7BOKCcLIGsE5mvWHH3pyRNBLIOZD5BruYArRoK5a4F2nZuCxhqI3O1DsB4nx//Kg5RPMPMuWoDmq81gVYuY0ArT3MUQzzqrdyhHMVq/iwV6+AEcpA6ZSsZNv05RpADUCqYpzWUl3UutJlHXWP0ASrJWQ3j+fgQ6dSKAQXQbtXNsdx+Xz+2Q+2M1fqtOUN1uE2QqjNGncgx8rU+Y4TfrihZ9RbIUbS4WoMdAFRXaN3cF4I64xmZDyhP81tQP3Tls45y6IPUdjI0Bp01NF+lIvvUbuW1+MrjtuQ+ELqtQIufc2kD8PmgohNSCQSTKRVDfOW28uDT3FyHNnNZM+do7aEaWot85nLRWpSA6hmawzYArYMFMcaVBzAOUDIPaOVqTGULzGfOJGidnAOdtSYB8e7BCgtoh6GzGNEqTK5iiAdoTeq5ndXQymEfhmpCp592lppDHkAfAH+uQVvzAdYkVEdM45A5nz7qOUeRcwHy6M+1gBwDchwLfLrQR1Bfx0QgE1gsg7EWWjHarA8b+lAdjTGuumKICx/AuII85imHMUK5KoeQ8zUvxwj6IbHkNjSuMa1N5FxAfWyj1Y6CbSro01hLX/kIWNDqDH25Q4xR6qJQHzuRQb9yVQdaNZQLvy5E5gAaV9DPHGKIr2jV1rYVk+pD17jW5UKozhxyYDMOnTZj5GeZQX6G+gcHFTtADDWindAc6LTJyXFCc6Fn/qQ49QzlEWrn9gnqmat8QPtDHRI2F6KVy7jK7AMmxZVHaG0i89kf5bX6SICnC0FdfcCqDz+pE7mxlq05Q/EsAXJzfAgaz9xJMQViwKR4jjEHQIwc5ea6rRzqwGq5QzGAPmAoB3rLp/pQHIANDMUB+rqZSskA7FxIi7AAObQJ6vCTk8F8SOUTjOd82swhHkyu1tA6yoeeY/RxUT5t5QDkqI+68pUH0CbIo86FPkWuTcAGWvGhnAzGIQn1jb32x0LV5VhrceXlWuQA2a9QrvKAbCtyHcWkWoDWy37YQ3GgxQHIy7nkA4yp3YplXkYrj5hUGxiKUweyrWAtxJXnM1VOhM6FiZB5YY7yANr0kUs+oDmUGgeYp8g1WnWAoZqEcoEhHtvIyPmA8nL7tFv9gg+2xjSuAIcLoXmU1BFr6YTWaQF8ciB10bqKsedUXAjqkCiwWoc0X7lDjQOsTbQ4QK6NRW2VrZr0qZ/IPnJZHyCHvpyjduZAqq7xVhvAUDsAfMzNObS1rqJVd0gHV+sM8QDY5Pprf3Do0mqYoC9zgZZPwVxF9rGGouXLYJvcHkj6cj45CnIB5iu0FjApnttSLnSNqw60+MRQbpaA6loDfiyT2lAJtOoyznqK7u6PDWWCQuNr4RJam371Aa16WgNYLV+R6w7lEavFh7BWrvIeTP1JaNX8X1UbWGt9+AD6u5mKIIFSwaKKFo8+rdvqSI4PtcllCEO11E/ZaoNgHmUL9FNqXS5qE8rL9Vs6pPoB9UFOqqnQHJUA9ElxADbrUyoHPm1/7P1UBFwgUQeyDaivpWcMxdbSBtBqZzUfABtoxQjlAJNqKYfINbVerjGEIZ7WAnJt6oq1tEmOSkB9CvXluNqrvkkPEIpDiw1BczI/x3J7wFp8sJmvkjEg50+ygSHOWnIB9bc4Wg9o6ZpP5DqA1sp1gGwrmNOC5rV0Rautsbs/EiCpA9kGcgOw6dNaQOYCrKmxVn7OzTmA+iA1H1AfeQTt7Ac0h/Wgqw3Ql8FcxjQPckgHMhfQNhhv1SSPNkG/5hLQuRDk5ZoqlU/emi/UESNyQc3JNTQP0HZyfouboTmsM4Sh+prT8ilyewqtm/Nbea02mJtrDPmJSTUzcq0hOYQWL+fAJnymYkIGfEP+DPVRpxxqHGDbWMijpJ85lAD5Oa6LgnbO0bYIxrEwDlCHVD+heQptQ+NZEi0/dLW1poK87AeQQ38rrj7WaPGht7YfPizde9QJFqKfybmIFs41FOBoLS5EK5e1lXfo0CFfMp+c3AZBnX7WJjRPdSLzAfIoFeByIbQGpW6P8pULHZyDBw92fOYoL0P95EEq4BvK19rkDXGB3Ia/SY8GE1XmzhCMQXJRaB5j8LX8GgdgK3dpaak885nPLJs2bSp/8Ad/4L7MgU1fC8rLoI8SXNbDktsBtB1yAPUD2Q953333lRe84AVlw4YN5c/+7M/Gclhr//795WlPe5pzuGzdurU85SlP8X1w9dVXN2trXwj6Ae0/efRlsJbWo66+3Gb3CWWFNsyEnLgatAYwyc4xQH2XX36578zNmzeXhz70oW5v3Nj+8jBKghyA8ZYO5BqtuGKIS59Ced/5znfK8573PNdPOeWU8q1vfavMzMyM1dm3b59vM/CHf/iHLuED96tf/Wp5yEMeUv7+7//eBx5ytL5CfdQhgawDa6lBDPJMGWFgUa5laUFjWSceTFzxu7/7u6MTTjhh9KY3vQlbNDr77LNXcAD4cr3sU9CvnCyJSTb0SQtB+7d/+7dH09PTo9/4jd8Y7dy5c/TFL36xMnrO3r17R6eddtroGc94Rufj8vGPf3xkg2r02Mc+dnTPPfe4j7mUWacNZJ/GAPVrjHZeNAZ0jxQAjjwdgdB1UVh+t2g86+QQjDEvQ+O33Xab/2W+8IUvLG9+85vLcccdVz70oQ+V5WX8c9wArjnOO++88pGPfMSXD3/4w7589KMfLfPz887B6QT2jTfeONafBx54oHz6058u1113Xee78MILyze/+c0yOztbvv71rxc7iGN5i4uL5eKLL3Y/2rnooov8FJ23BTYWbQ+nPrT38z//875ghvrsZz9bDhyIf4Hb2h8A/ZA//dM/XX7rt36rfP/73y+f+tSn3M/6uYbmAYyrTUBnPNchT30AudQdQ6NNdYI+5agk1mKrjzZ9Kv/lX/5ltGPHjtG//du/jWz6H/3UT/2U/4Vef/31HW9hYWH0a7/2ayMbcN1i118jO0WObrrpJufdcMMNbr/nPe/xHObaqWh05JFHjv7iL/7Cbfht8I6e85znjOzaxWsdfvjhoz/+4z/2uA2KkR3Q0aMf/ejRySefPDrxxBNHj3rUo0a/8iu/MrIB2tWFbC2f/OQnR8cff/zoc5/73MgG/OjFL36xz8LMxQLkmQrQ+FVXXTWya6zRK1/5ypENSPdpvJWTfbrQT0kdoK1xSuoAdb9Q52hrjULFkP1g8wD40CZ1LuwHJf4SjzrqqPLjP/7jZfv27eVVr3qVX6Sef/75HQ/XWn/0R3/kPiyf+cxnih3s8tSnPtVnNsA2uJPaBhb48sx37rnnlve9731+UYzZDzMlgOsYLHYK82u7K6+8svzqr/6qc97xjnd4PQD1saiOuvZH4tvzYz/2Y2XLli3l1a9+dbn11lt9ZiSPNYhcB3Eb6MUGdbnrrrvK7t27uzig+fS1oHUVsB+sD21SX/EmvSxbG8gYkTkE/a0aKgHlQEeMp77XvOY1fucD34te9CLfoZ/4xCd8ILCGXZsU+4svxx57bPnABz7gp7s//dM/9TtGbQegnf0K9OGv//qvy1ve8pby/Oc/3y+acap85zvfWV72speV1772tT7Isdi1XnnMYx7jAwYDh/kA2qC+a9euYjNUecUrXuEDC378sZx66qnlYx/7WLEZ13m5X+CxBiTi69evL3Zd5r4MxFmDfEpA45SEtkVkDmxyKJXTPfwklJwTAdUVmYMldwZYSy12+mtf+5pfE+EA4I4Js8dll11WzjjjDJ+R7BRYM/o2cXeEQfW6172u2KljsI0WwGWf7ZToA4U2JNrDHRiuoew0XF7+8pf7AMM1Dq65MGNoe+wTa3zlK18pdlrzgY/twYI8DKoLLrjA67f6i3wsWgvXdXfffXf3uIF55HEh6Ac01uIBGqfMPoB8gP5upqJDSdRbDVEHEMeSfeRpPvUhMI7BhL9qXNjaXVJ5+tOf3i1f+tKXfId+4Qtf6E5rwC233FJ+7/d+rzzucY/zHH3soGC/sCjY5wz6cCCh45SKAacLLrpxGsQMojXY/tzcnF/Y44Icsx+35dnPfnax68Vi13zlG9/4xqr7h8C2YnnEIx7hF/ual3X0B0uuzX7Sr3LIN1RnzG/GGHixBVDPPrVXQ6seoHVa/h/84Ad+242LYui62F+1Xyg/85nP9ItdwO6+Rm9961tHRx999MhmqxW17e7OL9T/6q/+aqw9u7vz2/o/+ZM/qZ7R6I1vfOPoYQ972MjurqongLZxUY+4QuvldinRZ1yg/+Zv/uaK7UE7uCHARTm2A9AL9QwboKNf+qVfGtkM1XwcsRrWwlkLch3a3aCiQ4lDSZA5BmhcpUJzNZ79dj2Dr+IenXPOOWM8ADbu0HCHZxfLbn/5y18eHXbYYSObLUZ2XdMtzL333ntHdkE/sgvu0ezsrN8x3XnnnX73hIMzNKi0bdxlnnnmmT44rr322pFd03kbkLgz1Tu4vGAwo792CndbARtt4i7zwgsvdB8Hlc1mXh8LBhy2A8+3bHYa2bXeyE65K+oBbJd6lkM6pfqJzANaur/2h4XQqU11cHJM84ZqADnGOKXWho4LWlyIn3766cVu18dixEtf+lJ/NoQLXFynvO1tb/NTIS6mbTbwBc9yvvvd7zof12U2gPw67SUveUn55V/+Zb/mwt0TLuYJbQNA2/ThLhMvq8CHu7fXv/713g6u3x7/+MeXP//zP++2hX0GcCrH8ywbqOWss86q3h7g4gk7eLhz5cU+cNVVV3m/seClHRto5e1vf3t57nOf63enuEHRtgj62Hf2K/dvUi75rEG0cpSz3m7F/yiTJjWUO0fJ+JBPwTiRebjFPvvss/02/lnPelZ3naK8HTt2lJtvvtkPNO6gcHuP6xZcg/F6A3VsZimPfOQjPR8vaeCOCQ86MRDtFFJ+/dd/3R8L4PrmSU96kte+5pprvE1ciIPPdlHjpJNO8gOKxwGXXHKJX2jjDhAX7BhcuDMFH1wAOvry7//+7/74AO2wHgEuBgdqoT1uMx5u4joOfcWCPNz9/s7v/I7/Udipfmy/KNQPqbr2TXVycm6WjCuPgD32fqoM+AnGyVUJ5PgkZM5QjtZucejTWMuX0eJnrIUDIAZMqtHiDPlynexrcQjGlAMdUHsofwitesBQnbEPPkAfSlI/gBhzlTcphzZzgZbkArAeJf1rQYsLn/ZxCNpHbVuXDPpyvNV3+HJdtqkLfeRluxVTDkE7t0FQzzFIzQFgZ5+i+34qJlOnZAHGhpCLMxeSMbWpa13lKZijyDbQ8ikQZ23lQqetOvsIUALwt/rYgtYD1G7FWmBb7E+r7ewj4OfSqg/fpHxA88ibVGvsBWVgLcVbBQEWBbgRkNTpVxuATckYfQr6Na665rTymUudgE6bOnkKzUFca3GhrdAYAJ39zlyAfvKIrLdyAeUBk/LYDkE911abNdq+qfL/Apvrro0FveDCAAAAAElFTkSuQmCC;" vertex="1" parent="1">
          <mxGeometry x="400" y="132" width="73.28" height="90" as="geometry" />
        </mxCell>
      </root>
    </mxGraphModel>
  </diagram>
</mxfile>
